<?xml version="1.0" encoding="UTF-8" standalone="no"?>
<svg
   xmlns:dc="http://purl.org/dc/elements/1.1/"
   xmlns:cc="http://creativecommons.org/ns#"
   xmlns:rdf="http://www.w3.org/1999/02/22-rdf-syntax-ns#"
   xmlns:svg="http://www.w3.org/2000/svg"
   xmlns="http://www.w3.org/2000/svg"
   xmlns:sodipodi="http://sodipodi.sourceforge.net/DTD/sodipodi-0.dtd"
   xmlns:inkscape="http://www.inkscape.org/namespaces/inkscape"
   version="1.1"
   id="svg2"
   viewBox="0 0 31.999999 26.118946"
   height="7.371347mm"
   width="9.0311108mm"
   inkscape:version="0.91 r13725"
   sodipodi:docname="Aメス-アイコン.svg">
  <sodipodi:namedview
     pagecolor="#ffffff"
     bordercolor="#666666"
     borderopacity="1"
     objecttolerance="10"
     gridtolerance="10"
     guidetolerance="10"
     inkscape:pageopacity="0"
     inkscape:pageshadow="2"
     inkscape:window-width="1128"
     inkscape:window-height="860"
     id="namedview171"
     showgrid="false"
     inkscape:zoom="4.9909005"
     inkscape:cx="30.150367"
     inkscape:cy="6.5769006"
     inkscape:window-x="543"
     inkscape:window-y="92"
     inkscape:window-maximized="0"
     inkscape:current-layer="svg2"
     fit-margin-top="0"
     fit-margin-left="0"
     fit-margin-right="0"
     fit-margin-bottom="0" />
  <defs
     id="defs4" />
  <metadata
     id="metadata7">
    <rdf:RDF>
      <cc:Work
         rdf:about="">
        <dc:format>image/svg+xml</dc:format>
        <dc:type
           rdf:resource="http://purl.org/dc/dcmitype/StillImage" />
        <dc:title></dc:title>
      </cc:Work>
    </rdf:RDF>
  </metadata>
  <g
     id="g4168"
     transform="scale(0.392657,0.392657)">
    <g
       id="g4873">
      <rect
         width="81.496063"
         height="56.692913"
         x="0"
         y="-66.518478"
         id="rect4754"
         style="fill:#1f7a34;fill-opacity:1;stroke:none;stroke-width:0.74965549;stroke-miterlimit:4;stroke-dasharray:none;stroke-dashoffset:0;stroke-opacity:1"
         transform="scale(1,-1)" />
      <text
         style="font-style:normal;font-variant:normal;font-weight:normal;font-stretch:normal;font-size:7.5px;line-height:100%;font-family:DroidSans;-inkscape-font-specification:'DroidSans, Normal';text-align:end;writing-mode:lr-tb;text-anchor:end;fill:#ffffff"
         id="xx3"
         y="-60.313278"
         x="60.02623"
         transform="scale(1.0416893,-0.95997915)"
         sodipodi:linespacing="100%">
        <tspan
           sodipodi:role="line"
           id="tspan4785"
           x="60.02623"
           y="-60.313278">+</tspan>
      </text>
      <circle
         style="fill:none;stroke:#9a916c;stroke-width:1.52999997"
         id="2"
         transform="matrix(0,-1,-1,0,0,0)"
         r="2.5650001"
         cy="-27.247322"
         cx="-60.316982" />
      <g
         id="g4306"
         transform="matrix(1.2499999,0,0,-1.25,16.272638,56.6)">
        <g
           id="g4308">
          <path
             id="path4310"
             d="m 0.851998,4.304 0,38.615 1.599,0 0,1.707 16.733,0 0.116,-1.096 0.526,0 0.116,1.096 16.754,0 0,-1.707 1.598,0 2e-6,-38.615 -37.442002,0 z M 13.28,40.401 c -0.056,0.307 -0.396,0.555 -0.795002,0.555 l -4.451018,0 c -0.397,0 -0.760003,-0.254 -0.798998,-0.555 L 4.429,19.716 C 4.378,19.411 4.685,19.159 5.075,19.159 l 0.655,0 c 0.396,0 0.757001,0.254 0.799999,0.557 L 8.64403,37.1 c 0.033,0.31 0.373,0.558 0.793001,0.558 l 1.652,0 c 0.383,0 0.760003,-0.252 0.796997,-0.558 l 2.104,-17.385 c 0.047,-0.303 0.373,-0.555 0.796997,-0.555 l 0.646,-0.002 c 0.394,0 0.693,0.254 0.654,0.555 L 13.28,40.401 Z m 18.634,0 c -0.055,0.307 -0.396,0.555 -0.796997,0.555 l -4.449,0 c -0.396,0 -0.760003,-0.254 -0.801,-0.555 L 23.06,19.716 c -0.049,-0.305 0.258,-0.557 0.646,-0.557 l 0.654,0 c 0.396,0 0.756,0.254 0.796997,0.557 L 27.275,37.1 c 0.031,0.31 0.371,0.558 0.793001,0.558 l 1.65,0 c 0.383,0 0.760003,-0.252 0.796997,-0.558 l 2.105,-17.385 c 0.049,-0.303 0.373,-0.555 0.795002,-0.555 l 0.646,-0.002 c 0.395,0 0.693,0.254 0.654,0.555 l -2.801,20.688 z"
             inkscape:connector-curvature="0"
             style="fill:#4d4d4d" />
          <rect
             id="rect4312"
             x="3.487"
             height="33.438"
             y="7.6559801"
             width="32.188"
             style="fill:#808080" />
          <rect
             id="rect4314"
             x="3.487"
             height="1.75"
             y="41.094002"
             width="32.188"
             style="fill:#f2f2f2" />
          <path
             id="path4316"
             d="m 36.875,38.214 1,0 c 0,0.535 0.1,0.885002 0.27,0.997999 0.066,0.031 0.627,0.107 1.016,0.107 l 0,0.674 0,0.326 0,3.307 0,0.154 0,0.846 c -0.605,0 -1.316,-0.111 -1.563,-0.271 -0.664,-0.445 -0.715,-1.341 -0.721001,-1.738 l -0.002,-0.002 0,-4 0.02,0.011 C 36.877,38.452 36.875,38.305 36.875,38.214 Z"
             inkscape:connector-curvature="0"
             style="fill:#b0b0b0" />
          <path
             id="path4318"
             d="m 38.027,39.073 c -0.1,-0.172 -0.15,-0.465 -0.15,-0.860998 l -1,0 0,4.305 c 0,0.281 0.008,1.035 0.43,1.564 0.125,0.145 0.189,0.313 0.813002,0.449 C 38.017,44.354 38.027,39.073 38.027,39.073 Z"
             inkscape:connector-curvature="0"
             style="fill:#8f8f8f" />
          <path
             id="path4320"
             d="m 2.283,38.214 -1,0 c 0,0.535 -0.101,0.885002 -0.271,0.997999 C 0.947002,39.243 0.385,39.319 0,39.319 l 0,0.674 0,0.326 0,3.307 0,0.154 0,0.846 c 0.604,0 1.318,-0.111 1.56,-0.271 0.665,-0.445 0.719,-1.341 0.723002,-1.738 l 10e-4,-0.002 0,-4 -0.02,0.011 C 2.282,38.452 2.283,38.305 2.283,38.214 Z"
             inkscape:connector-curvature="0"
             style="fill:#b0b0b0" />
          <path
             id="path4322"
             d="m 1.044,44.526 c 0.619,-0.135 0.688,-0.309 0.812002,-0.451 0.425,-0.521 0.431,-1.275 0.431,-1.559 l 0,-4.305 -1,0 c 0,0.396 -0.058,0.688 -0.149,0.857002 C 1.133,39.073 1.139,44.354 1.044,44.526 Z"
             inkscape:connector-curvature="0"
             style="fill:#8f8f8f" />
          <path
             id="path4324"
             d="m 0.851998,-0.001 0,38.613 1.599,0 0,1.707 34.25,0 0,-1.707 1.596,0 2e-6,-38.613 -37.445002,0 z M 13.28,36.096 c -0.056,0.306 -0.396,0.554 -0.795002,0.554 l -4.451018,0 c -0.397,0 -0.760003,-0.252 -0.798998,-0.554 L 4.429,15.41 C 4.378,15.106 4.685,14.854 5.075,14.854 l 0.655,0 c 0.396,0 0.757001,0.253 0.799999,0.556 l 2.114,17.386 c 0.033,0.313 0.373,0.561 0.793001,0.561 l 1.652,0 c 0.383,0 0.760003,-0.256 0.796997,-0.561 l 2.104,-17.385 c 0.047,-0.304 0.373,-0.555 0.796997,-0.555 l 0.646,-0.002 c 0.394,0 0.693,0.253 0.654,0.555 L 13.28,36.096 Z m 18.634,0 c -0.055,0.306 -0.396,0.554 -0.796997,0.554 l -4.449,0 c -0.396,0 -0.760003,-0.252 -0.801,-0.554 L 23.06,15.41 c -0.049,-0.304 0.258,-0.556 0.646,-0.556 l 0.654,0 c 0.396,0 0.756,0.253 0.796997,0.556 l 2.117,17.386 c 0.031,0.313 0.371,0.561 0.793001,0.561 l 1.65,0 c 0.383,0 0.760003,-0.256 0.796997,-0.561 l 2.105,-17.385 c 0.049,-0.304 0.373,-0.555 0.795002,-0.555 l 0.646,-0.002 c 0.395,0 0.693,0.253 0.654,0.555 L 31.914,36.096 Z"
             inkscape:connector-curvature="0"
             style="fill:#b3b3b3" />
          <polygon
             id="polygon4326"
             points="8.69998,33.339 11.81,33.339 11.995,31.708 8.53798,31.708 "
             style="fill:none" />
          <polygon
             id="polygon4328"
             points="11.995,31.708 11.81,33.339 8.69998,33.339 8.53798,31.708 "
             style="fill:#939393" />
          <polygon
             id="polygon4330"
             points="11.995,31.708 12.079,31.024 8.442,31.024 8.53798,31.708 "
             style="fill:#666666" />
          <polygon
             id="polygon4332"
             points="27.332,33.339 30.443,33.339 30.625,31.708 27.17,31.708 "
             style="fill:none" />
          <polygon
             id="polygon4334"
             points="30.625,31.708 30.443,33.339 27.332,33.339 27.17,31.708 "
             style="fill:#939393" />
          <polygon
             id="polygon4336"
             points="30.625,31.708 30.709,31.024 27.074,31.024 27.17,31.708 "
             style="fill:#666666" />
          <line
             id="line4338"
             y2="37.904999"
             x2="1.42"
             y1="1.064"
             x1="1.42"
             style="fill:none;stroke:#ffffff;stroke-width:0.8064;stroke-linecap:round;stroke-opacity:0.23999999" />
          <line
             id="line4340"
             y2="38.055"
             x2="37.726002"
             y1="1.064"
             x1="37.726002"
             style="fill:none;stroke:#ffffff;stroke-width:0.8064;stroke-linecap:round;stroke-opacity:0.23999999" />
          <line
             id="line4342"
             y2="39.188"
             x2="2.668"
             y1="39.188"
             x1="36.478001"
             style="fill:none;stroke:#000000;stroke-width:0.4032;stroke-linecap:round;stroke-opacity:0.15" />
          <rect
             id="rect4344"
             x="2.4489999"
             height="0.64999998"
             y="39.668999"
             width="34.25"
             style="fill:#b0b0b0" />
          <polygon
             id="polygon4346"
             points="19.184,44.626 2.449,44.626 2.449,45.28 19.116,45.28 "
             style="fill:#b0b0b0" />
          <polygon
             id="polygon4348"
             points="19.945,44.626 20.013,45.28 36.699,45.28 36.699,44.626 "
             style="fill:#b0b0b0" />
        </g>
      </g>
      <circle
         cx="-60.316982"
         cy="-36.27"
         r="2.5650001"
         transform="matrix(0,-1,-1,0,0,0)"
         id="circle4766"
         style="fill:none;stroke:#9a916c;stroke-width:1.52999997" />
      <circle
         style="fill:none;stroke:#9a916c;stroke-width:1.52999997"
         id="circle4768"
         transform="matrix(0,-1,-1,0,0,0)"
         r="2.5650001"
         cy="-45.27"
         cx="-60.316982" />
      <circle
         cx="-60.316982"
         cy="-54.27"
         r="2.5650001"
         transform="matrix(0,-1,-1,0,0,0)"
         id="circle4770"
         style="fill:none;stroke:#9a916c;stroke-width:1.52999997" />
      <text
         sodipodi:linespacing="100%"
         transform="scale(1.0416893,-0.95997915)"
         x="22.295462"
         y="-61.163654"
         id="text4787"
         style="font-style:normal;font-variant:normal;font-weight:normal;font-stretch:normal;font-size:7.5px;line-height:100%;font-family:DroidSans;-inkscape-font-specification:'DroidSans, Normal';text-align:end;writing-mode:lr-tb;text-anchor:end;fill:#ffffff">
        <tspan
           sodipodi:role="line"
           id="tspan4791"
           x="22.295462"
           y="-61.163654">-</tspan>
      </text>
      <text
         sodipodi:linespacing="100%"
         transform="scale(1.0416893,-0.95997915)"
         x="37.714108"
         y="-52.382008"
         id="text4793"
         style="font-style:normal;font-variant:normal;font-weight:normal;font-stretch:normal;font-size:5px;line-height:100%;font-family:DroidSans;-inkscape-font-specification:'DroidSans, Normal';text-align:end;writing-mode:lr-tb;text-anchor:end;fill:#ffffff">
        <tspan
           sodipodi:role="line"
           id="tspan4865"
           x="37.714108"
           y="-52.382008">D+</tspan>
      </text>
      <text
         style="font-style:normal;font-variant:normal;font-weight:normal;font-stretch:normal;font-size:5px;line-height:100%;font-family:DroidSans;-inkscape-font-specification:'DroidSans, Normal';text-align:end;writing-mode:lr-tb;text-anchor:end;fill:#ffffff"
         id="text4867"
         y="-52.17329"
         x="46.177326"
         transform="scale(1.0416893,-0.95997915)"
         sodipodi:linespacing="100%">
        <tspan
           y="-52.17329"
           x="46.177326"
           sodipodi:role="line"
           id="tspan4871">D-</tspan>
      </text>
    </g>
  </g>
</svg>
