<?xml version="1.0" encoding="UTF-8" standalone="no"?>
<svg
   xmlns:dc="http://purl.org/dc/elements/1.1/"
   xmlns:cc="http://creativecommons.org/ns#"
   xmlns:rdf="http://www.w3.org/1999/02/22-rdf-syntax-ns#"
   xmlns:svg="http://www.w3.org/2000/svg"
   xmlns="http://www.w3.org/2000/svg"
   xmlns:sodipodi="http://sodipodi.sourceforge.net/DTD/sodipodi-0.dtd"
   xmlns:inkscape="http://www.inkscape.org/namespaces/inkscape"
   version="1.1"
   id="svg2"
   viewBox="0 0 44.999999 44.999999"
   height="12.7mm"
   width="12.7mm"
   inkscape:version="0.91 r13725"
   sodipodi:docname="マイクロBメス-ブレッドボード.svg">
  <sodipodi:namedview
     pagecolor="#ffffff"
     bordercolor="#666666"
     borderopacity="1"
     objecttolerance="10"
     gridtolerance="10"
     guidetolerance="10"
     inkscape:pageopacity="0"
     inkscape:pageshadow="2"
     inkscape:window-width="1491"
     inkscape:window-height="981"
     id="namedview171"
     showgrid="false"
     inkscape:zoom="14.333333"
     inkscape:cx="25.171749"
     inkscape:cy="22.499999"
     inkscape:window-x="427"
     inkscape:window-y="29"
     inkscape:window-maximized="0"
     inkscape:current-layer="svg2"
     fit-margin-top="0"
     fit-margin-left="0"
     fit-margin-right="0"
     fit-margin-bottom="0" />
  <defs
     id="defs4" />
  <metadata
     id="metadata7">
    <rdf:RDF>
      <cc:Work
         rdf:about="">
        <dc:format>image/svg+xml</dc:format>
        <dc:type
           rdf:resource="http://purl.org/dc/dcmitype/StillImage" />
        <dc:title></dc:title>
      </cc:Work>
    </rdf:RDF>
  </metadata>
  <rect
     width="45"
     height="45"
     x="0"
     y="-45"
     id="rect4754"
     style="fill:#1f7a34;fill-opacity:1;stroke:none;stroke-width:0.74965549;stroke-miterlimit:4;stroke-dasharray:none;stroke-dashoffset:0;stroke-opacity:1"
     transform="scale(1,-1)" />
  <circle
     style="fill:none;stroke:#9a916c;stroke-width:1.52999997"
     id="connector1pin"
     transform="matrix(0,-1,-1,0,0,0)"
     r="2.5650001"
     cy="-4.8064823"
     cx="-40.998867" />
  <circle
     cx="-40.998867"
     cy="-13.829161"
     r="2.5650001"
     transform="matrix(0,-1,-1,0,0,0)"
     id="connector2pin"
     style="fill:none;stroke:#9a916c;stroke-width:1.52999997" />
  <circle
     style="fill:none;stroke:#9a916c;stroke-width:1.52999997"
     id="connector3pin"
     transform="matrix(0,-1,-1,0,0,0)"
     r="2.5650001"
     cy="-22.829161"
     cx="-40.998867" />
  <circle
     cx="-40.998867"
     cy="-31.829161"
     r="2.5650001"
     transform="matrix(0,-1,-1,0,0,0)"
     id="connector4pin"
     style="fill:none;stroke:#9a916c;stroke-width:1.52999997" />
  <text
     sodipodi:linespacing="100%"
     transform="scale(1.0416893,-0.95997915)"
     x="40.268658"
     y="-34.906906"
     id="text4787"
     style="font-style:normal;font-variant:normal;font-weight:normal;font-stretch:normal;font-size:7.5px;line-height:100%;font-family:DroidSans;-inkscape-font-specification:'DroidSans, Normal';text-align:end;writing-mode:lr-tb;text-anchor:end;fill:#ffffff">
    <tspan
       sodipodi:role="line"
       id="tspan4791"
       x="40.268658"
       y="-34.906906">-</tspan>
  </text>
  <text
     sodipodi:linespacing="100%"
     transform="scale(1.0416893,-0.95997915)"
     x="25.843716"
     y="-34.796135"
     id="text4793"
     style="font-style:normal;font-variant:normal;font-weight:normal;font-stretch:normal;font-size:5px;line-height:100%;font-family:DroidSans;-inkscape-font-specification:'DroidSans, Normal';text-align:end;writing-mode:lr-tb;text-anchor:end;fill:#ffffff">
    <tspan
       sodipodi:role="line"
       id="tspan4865"
       x="25.843716"
       y="-34.796135">D+</tspan>
  </text>
  <text
     style="font-style:normal;font-variant:normal;font-weight:normal;font-stretch:normal;font-size:5px;line-height:100%;font-family:DroidSans;-inkscape-font-specification:'DroidSans, Normal';text-align:end;writing-mode:lr-tb;text-anchor:end;fill:#ffffff"
     id="text4867"
     y="-34.787281"
     x="16.430111"
     transform="scale(1.0416893,-0.95997915)"
     sodipodi:linespacing="100%">
    <tspan
       y="-34.787281"
       x="16.430111"
       sodipodi:role="line"
       id="tspan4871">D-</tspan>
  </text>
  <g
     transform="matrix(1.2500001,0,0,-1.2500001,8.6805922,27.627694)"
     id="g4176">
    <g
       id="g4178">
      <g
         id="g4180">
        <rect
           style="fill:#666666"
           width="0.99000001"
           y="0"
           height="0.64999998"
           x="7.2850299"
           id="rect4182" />
        <rect
           style="fill:#999999"
           width="0.088999897"
           y="0"
           height="0.51200002"
           x="7.2850299"
           id="rect4184" />
      </g>
      <g
         id="g4186">
        <rect
           style="fill:#666666"
           width="0.99100101"
           y="0"
           height="0.64999998"
           x="9.1290197"
           id="rect4188" />
        <rect
           style="fill:#999999"
           width="0.088999897"
           y="0"
           height="0.51200002"
           x="9.1290197"
           id="rect4190" />
      </g>
      <g
         id="g4192">
        <rect
           style="fill:#666666"
           width="0.99100101"
           y="0"
           height="0.64999998"
           x="10.97"
           id="rect4194" />
        <rect
           style="fill:#999999"
           width="0.088999897"
           y="0"
           height="0.51200002"
           x="10.97"
           id="rect4196" />
      </g>
      <g
         id="g4198">
        <rect
           style="fill:#666666"
           width="0.99000001"
           y="0"
           height="0.64999998"
           x="12.814"
           id="rect4200" />
        <rect
           style="fill:#999999"
           width="0.087999798"
           y="0"
           height="0.51200002"
           x="12.814"
           id="rect4202" />
      </g>
      <g
         id="g4204">
        <rect
           style="fill:#666666"
           width="0.99000001"
           y="0"
           height="0.64999998"
           x="14.656"
           id="rect4206" />
        <rect
           style="fill:#999999"
           width="0.088999897"
           y="0"
           height="0.51200002"
           x="14.656"
           id="rect4208" />
      </g>
      <g
         id="g4210">
        <polygon
           style="fill:#b3b3b3"
           points="2.06,0.366 20.905,0.366 20.904,19.104 20.848,21.364 2.164,21.364 2.06,19.335 "
           id="polygon4212" />
        <polygon
           style="fill:#999999"
           points="13.309,21.19 10.12,17.786 2.275,17.786 2.275,21.197 4.061,21.192 "
           id="polygon4214" />
        <rect
           style="fill:#666666"
           width="1.831"
           y="6.98"
           height="3.0409999"
           x="21.104"
           id="rect4216" />
        <rect
           style="fill:#666666"
           width="1.829"
           y="6.98"
           height="3.0409999"
           x="0"
           id="rect4218" />
        <rect
           style="fill:#cccccc"
           width="18.844999"
           y="0.366"
           height="0.13"
           x="2.0599999"
           id="rect4220" />
        <rect
           style="fill:#333333"
           width="10.291"
           y="0.366"
           height="18.363001"
           x="6.3210001"
           id="rect4222" />
        <rect
           style="fill:#b3b3b3"
           width="1.003"
           y="18.188"
           height="1.082"
           x="0.82599801"
           id="rect4224" />
        <rect
           style="fill:#cccccc"
           width="0.64200002"
           y="18.188"
           height="1.082"
           x="1.189"
           id="rect4226" />
        <rect
           style="fill:#b3b3b3"
           width="1.001"
           y="18.188"
           height="1.082"
           x="21.103001"
           id="rect4228" />
        <rect
           style="fill:#cccccc"
           width="0.64200002"
           y="18.188"
           height="1.082"
           x="21.103001"
           id="rect4230" />
        <g
           id="g4232">
          <g
             id="g4234">
            <rect
               style="fill:#f2f2f2"
               width="0.477"
               y="19.104"
               height="0.648"
               x="15.4"
               id="rect4236" />
          </g>
          <g
             id="g4238">
            <rect
               style="fill:#f2f2f2"
               width="0.479"
               y="19.104"
               height="0.648"
               x="13.313"
               id="rect4240" />
          </g>
          <g
             id="g4242">
            <rect
               style="fill:#f2f2f2"
               width="0.477"
               y="19.104"
               height="0.648"
               x="11.229"
               id="rect4244" />
          </g>
          <g
             id="g4246">
            <rect
               style="fill:#f2f2f2"
               width="0.477"
               y="19.104"
               height="0.648"
               x="9.1429901"
               id="rect4248" />
          </g>
          <g
             id="g4250">
            <rect
               style="fill:#f2f2f2"
               width="0.477"
               y="19.104"
               height="0.648"
               x="7.0580001"
               id="rect4252" />
          </g>
          <g
             id="g4254">
            <rect
               style="fill:#808080"
               width="0.0959998"
               y="19.104"
               height="0.648"
               x="7.0580001"
               id="rect4256" />
          </g>
          <g
             id="g4258">
            <rect
               style="fill:#808080"
               width="0.0959998"
               y="19.104"
               height="0.648"
               x="9.1429901"
               id="rect4260" />
          </g>
          <g
             id="g4262">
            <rect
               style="fill:#808080"
               width="0.097999901"
               y="19.104"
               height="0.648"
               x="11.229"
               id="rect4264" />
          </g>
          <g
             id="g4266">
            <rect
               style="fill:#808080"
               width="0.097999901"
               y="19.104"
               height="0.648"
               x="13.314"
               id="rect4268" />
          </g>
          <g
             id="g4270">
            <rect
               style="fill:#808080"
               width="0.097999901"
               y="19.104"
               height="0.648"
               x="15.401"
               id="rect4272" />
          </g>
        </g>
        <path
           style="fill:#4d4d4d"
           inkscape:connector-curvature="0"
           d="m 6.545,19.938 0.514,0 0,-0.396 0.477,0 0,0.396 1.608,0 0,-0.396 0.47599,0 0,0.396 1.608,0 0,-0.396 0.477,0 0,0.396 1.607,0 0,-0.396 0.479,0 0,0.396 1.60901,0 0,-0.396 0.477,0 0,0.396 0.323,0 0.269,0 c 0.079,0 0.144,-0.064 0.144,-0.146 l 0,-1.064 c 0,-0.08 -0.063,-0.146 -0.144,-0.146 l -10.003,0 c -0.079,0 -0.146,0.064 -0.146,0.146 l 0,1.064 c 0,0.078 0.065,0.146 0.146,0.146 l 0.079,0 z"
           id="path4274" />
        <path
           style="fill:#cccccc"
           inkscape:connector-curvature="0"
           d="m 1.829,0.932998 0.229,-0.567 2.534,0 c 0,0 -2.302,0.113 -2.384,0.283 -0.082,0.17 0.11,0.284 0.11,0.284 l -0.489,0 z"
           id="path4276" />
        <path
           style="fill:#cccccc"
           inkscape:connector-curvature="0"
           d="m 21.104,0.932998 -0.229,-0.566 -2.535,2e-6 c 0,0 2.301,0.113 2.383,0.283 0.082,0.17 -0.109,0.283 -0.109,0.283 l 0.49,-2e-6 z"
           id="path4278" />
        <path
           style="fill:#cccccc"
           inkscape:connector-curvature="0"
           d="m 1.829,16.688 0,4.833 19.276,-0.006 0,-4.827 -19.276,0 z m 18.829,4.509 -18.383,0 0,-3.411 18.385,0 -0.002,3.411 z"
           id="path4280" />
        <path
           style="fill:#e6e6e6"
           inkscape:connector-curvature="0"
           d="M 17.715,0.932998 17.715,2 16.11,2 l 0,-1.634 -0.461,0 0,0.566 -8.36397,-3e-6 0,-0.565997 -0.52503,0 0,1.635 -1.606,0 0,-1.068002 -3.325,0 0,16.439 19.273,0 0,-16.439 -3.387,0 z M 6.76,14.223 l 0,0.814003 -1.593,-3e-6 0,-0.880999 c -0.426,-0.277 -0.708,-0.760003 -0.708,-1.307 0,-0.598 0.219,-1.105 0.708,-1.369 l 0,0 0,-4.48 1.592,0 0,4.482 c 0.488,0.264 0.824998,0.772999 0.824998,1.371 C 7.58398,13.45 7.24802,13.96 6.76,14.223 Z m 10.888,0 0,0.814003 -1.592,0 0,-0.880999 c -0.426,-0.277 -0.707,-0.760003 -0.707,-1.307 0,-0.598 0.217,-1.105 0.707,-1.369 l 0,0 0,-4.48 1.592,0 0,4.482 c 0.49,0.264 0.825998,0.772999 0.825998,1.371 C 18.474,13.45 18.139,13.96 17.648,14.223 Z"
           id="path4282" />
        <polygon
           style="fill:#f2f2f2"
           points="2.235,17.376 1.829,17.376 1.829,0.932998 3.36,0.932998 "
           id="polygon4284" />
        <polygon
           style="fill:#999999"
           points="21.104,17.376 20.535,6.396 19.968,0.932998 21.104,0.932998 "
           id="polygon4286" />
        <rect
           style="fill:#cccccc"
           width="1.592"
           y="7.0009999"
           height="0.13"
           x="5.1669998"
           id="rect4288" />
        <rect
           style="fill:#cccccc"
           width="1.591"
           y="7.0009999"
           height="0.13"
           x="16.058001"
           id="rect4290" />
        <rect
           style="fill:#b3b3b3"
           width="17.386999"
           y="16.511999"
           height="0.66000003"
           x="2.7739999"
           id="rect4292" />
        <rect
           style="fill:#cccccc"
           width="17.386999"
           y="17.063"
           height="0.31299999"
           x="2.7739999"
           id="rect4294" />
      </g>
    </g>
  </g>
  <circle
     style="fill:none;stroke:#9a916c;stroke-width:1.52999997"
     id="connector5pin"
     transform="matrix(0,-1,-1,0,0,0)"
     r="2.5650001"
     cy="-40.829163"
     cx="-40.998867" />
  <text
     style="font-style:normal;font-variant:normal;font-weight:normal;font-stretch:normal;font-size:7.5px;line-height:100%;font-family:DroidSans;-inkscape-font-specification:'DroidSans, Normal';text-align:end;writing-mode:lr-tb;text-anchor:end;fill:#ffffff"
     id="xx3"
     y="-34.101364"
     x="6.6043262"
     transform="scale(1.0416893,-0.95997915)"
     sodipodi:linespacing="100%">
    <tspan
       sodipodi:role="line"
       id="tspan4785"
       x="6.6043262"
       y="-34.101364">+</tspan>
  </text>
</svg>
