<?xml version="1.0" encoding="UTF-8" standalone="no"?>
<svg
   xmlns:dc="http://purl.org/dc/elements/1.1/"
   xmlns:cc="http://creativecommons.org/ns#"
   xmlns:rdf="http://www.w3.org/1999/02/22-rdf-syntax-ns#"
   xmlns:svg="http://www.w3.org/2000/svg"
   xmlns="http://www.w3.org/2000/svg"
   xmlns:sodipodi="http://sodipodi.sourceforge.net/DTD/sodipodi-0.dtd"
   xmlns:inkscape="http://www.inkscape.org/namespaces/inkscape"
   version="1.1"
   id="svg2"
   viewBox="0 0 84.810205 31.131439"
   height="8.785984mm"
   width="23.935324mm"
   inkscape:version="0.91 r13725"
   sodipodi:docname="回路図.svg">
  <sodipodi:namedview
     pagecolor="#ffffff"
     bordercolor="#666666"
     borderopacity="1"
     objecttolerance="10"
     gridtolerance="10"
     guidetolerance="10"
     inkscape:pageopacity="0"
     inkscape:pageshadow="2"
     inkscape:window-width="1920"
     inkscape:window-height="1017"
     id="namedview117"
     showgrid="false"
     inkscape:zoom="7.0461722"
     inkscape:cx="56.169977"
     inkscape:cy="13.103952"
     inkscape:window-x="-8"
     inkscape:window-y="-8"
     inkscape:window-maximized="1"
     inkscape:current-layer="svg2"
     fit-margin-top="0"
     fit-margin-left="0"
     fit-margin-right="0"
     fit-margin-bottom="0" />
  <defs
     id="defs4" />
  <metadata
     id="metadata7">
    <rdf:RDF>
      <cc:Work
         rdf:about="">
        <dc:format>image/svg+xml</dc:format>
        <dc:type
           rdf:resource="http://purl.org/dc/dcmitype/StillImage" />
        <dc:title />
      </cc:Work>
    </rdf:RDF>
  </metadata>
  <g
     id="connector0terminal"
     y="7.56"
     x="0.324"
     width="0.001"
     height="0"
     style="fill:none"
     transform="matrix(1.25,0,0,1.25,0.07042426,106.21665)" />
  <g
     id="connector1terminal"
     y="14.76"
     x="0.324"
     width="0.001"
     height="0"
     style="fill:none"
     transform="matrix(1.25,0,0,1.25,0.07042426,106.21665)" />
  <g
     id="connector2terminal"
     y="21.96"
     x="0.324"
     width="0.001"
     height="0"
     style="fill:none"
     transform="matrix(1.25,0,0,1.25,0.07042426,106.21665)" />
  <g
     id="connector3terminal"
     y="29.16"
     x="0.324"
     width="0.001"
     height="0"
     style="fill:none"
     transform="matrix(1.25,0,0,1.25,0.07042426,106.21665)" />
  <g
     id="connector4terminal"
     y="36.36"
     x="0.324"
     width="0.001"
     height="0"
     style="fill:none"
     transform="matrix(1.25,0,0,1.25,0.07042426,106.21665)" />
  <g
     id="connector5terminal"
     y="43.56"
     x="0.324"
     width="0.001"
     height="0"
     style="fill:none"
     transform="matrix(1.25,0,0,1.25,0.07042426,106.21665)" />
  <g
     id="connector6terminal"
     y="50.761"
     x="0.324"
     width="0.001"
     height="0"
     style="fill:none"
     transform="matrix(1.25,0,0,1.25,0.07042426,106.21665)" />
  <g
     id="connector7terminal"
     y="57.96"
     x="0.324"
     width="0.001"
     height="0"
     style="fill:none"
     transform="matrix(1.25,0,0,1.25,0.07042426,106.21665)" />
  <g
     id="connector8terminal"
     y="65.16"
     x="0.324"
     width="0.001"
     height="0"
     style="fill:none"
     transform="matrix(1.25,0,0,1.25,0.07042426,106.21665)" />
  <g
     id="connector9terminal"
     y="72.36"
     x="0.324"
     width="0.001"
     height="0"
     style="fill:none"
     transform="matrix(1.25,0,0,1.25,0.07042426,106.21665)" />
  <g
     id="connector10terminal"
     y="72.36"
     x="115.525"
     width="0"
     height="0"
     style="fill:none"
     transform="matrix(1.25,0,0,1.25,0.07042426,106.21665)" />
  <g
     id="connector11terminal"
     y="65.16"
     x="115.525"
     width="0"
     height="0"
     style="fill:none"
     transform="matrix(1.25,0,0,1.25,0.07042426,106.21665)" />
  <g
     id="connector12terminal"
     y="57.96"
     x="115.525"
     width="0"
     height="0"
     style="fill:none"
     transform="matrix(1.25,0,0,1.25,0.07042426,106.21665)" />
  <g
     id="connector14terminal"
     y="43.56"
     x="115.525"
     width="0"
     height="0"
     style="fill:none"
     transform="matrix(1.25,0,0,1.25,0.07042426,106.21665)" />
  <g
     id="connector15terminal"
     y="36.36"
     x="115.525"
     width="0"
     height="0"
     style="fill:none"
     transform="matrix(1.25,0,0,1.25,0.07042426,106.21665)" />
  <g
     id="connector16terminal"
     y="29.16"
     x="115.525"
     width="0"
     height="0"
     style="fill:none"
     transform="matrix(1.25,0,0,1.25,0.07042426,106.21665)" />
  <g
     id="connector17terminal"
     y="21.96"
     x="115.525"
     width="0"
     height="0"
     style="fill:none"
     transform="matrix(1.25,0,0,1.25,0.07042426,106.21665)" />
  <g
     id="connector18terminal"
     y="14.76"
     x="115.525"
     width="0"
     height="0"
     style="fill:none"
     transform="matrix(1.25,0,0,1.25,0.07042426,106.21665)" />
  <g
     id="connector19terminal"
     y="7.56"
     x="115.525"
     width="0"
     height="0"
     style="fill:none"
     transform="matrix(1.25,0,0,1.25,0.07042426,106.21665)" />
  <rect
     y="0.58630532"
     x="18.571432"
     height="29.743765"
     width="66.071426"
     id="rect4281"
     style="opacity:1;fill:#ffffff;fill-opacity:1;stroke:#c80000;stroke-width:0;stroke-linejoin:round;stroke-miterlimit:4;stroke-dasharray:none;stroke-dashoffset:0;stroke-opacity:1" />
  <g
     id="g4170"
     transform="matrix(1.25,0,0,1.25,35.070902,21.506812)">
    <text
       sodipodi:linespacing="125%"
       font-size="4.25"
       id="label_1_"
       style="font-style:normal;font-variant:normal;font-weight:normal;font-stretch:normal;font-size:4.25px;line-height:125%;font-family:DroidSans;-inkscape-font-specification:'DroidSans, Normal';text-align:start;writing-mode:lr-tb;text-anchor:start">
      <tspan
         y="0"
         x="0"
         id="tspan4281">AE-LXDC55</tspan>
    </text>
  </g>
  <line
     id="line4176"
     x2="84.354065"
     x1="18.271141"
     y2="0.64093369"
     y1="0.64093369"
     style="fill:none;stroke:#000000;stroke-width:0.88030815;stroke-linecap:round" />
  <line
     id="line4178"
     x2="84.498375"
     x1="84.498375"
     y2="30.649286"
     y1="0.31624046"
     style="fill:none;stroke:#000000;stroke-width:0.62360686;stroke-linecap:round" />
  <line
     id="line4180"
     x2="18.268328"
     x1="84.025955"
     y2="30.692326"
     y1="30.692326"
     style="fill:none;stroke:#000000;stroke-width:0.87813902;stroke-linecap:round" />
  <line
     id="line4182"
     x2="18.098322"
     x1="18.098322"
     y2="0.42378843"
     y1="30.70738"
     style="fill:none;stroke:#000000;stroke-width:0.62309819;stroke-linecap:round" />
  <line
     id="connector0pin"
     x2="18.476677"
     x1="0.47542617"
     y2="7.6666598"
     y1="7.6666598"
     style="fill:none;stroke:#787878;stroke-width:0.9375;stroke-linecap:round" />
  <g
     id="g4186"
     transform="matrix(1.25,0,0,1.25,8.6156743,15.111513)">
    <text
       id="text4188"
       font-size="2.5"
       style="font-size:2.5px;font-family:DroidSans;fill:#8c8c8c">1</text>
  </g>
  <g
     id="g4190"
     transform="matrix(1.25,0,0,1.25,21.101044,8.5414029)">
    <text
       sodipodi:linespacing="125%"
       id="text4192"
       font-size="3.5"
       style="font-style:normal;font-variant:normal;font-weight:normal;font-stretch:normal;font-size:3.5px;line-height:125%;font-family:DroidSans;-inkscape-font-specification:'DroidSans, Normal';text-align:start;writing-mode:lr-tb;text-anchor:start;fill:#787878">
      <tspan
         y="0"
         x="0"
         id="tspan4283">IN</tspan>
    </text>
  </g>
  <line
     id="connector1pin"
     x2="18.476677"
     x1="0.47542617"
     y2="16.66666"
     y1="16.66666"
     style="fill:none;stroke:#787878;stroke-width:0.9375;stroke-linecap:round" />
  <g
     id="g4196"
     transform="matrix(1.25,0,0,1.25,8.6156743,24.111763)">
    <text
       id="text4198"
       font-size="2.5"
       style="font-size:2.5px;font-family:DroidSans;fill:#8c8c8c">2</text>
  </g>
  <g
     id="g4200"
     transform="matrix(1.25,0,0,1.25,21.101044,17.541653)">
    <text
       sodipodi:linespacing="125%"
       id="text4202"
       font-size="3.5"
       style="font-size:3.5px;line-height:125%;font-family:DroidSans;fill:#787878">
      <tspan
         y="0"
         x="0"
         id="tspan4287">GND</tspan>
    </text>
  </g>
  <line
     id="connector2pin"
     x2="18.476677"
     x1="0.47542617"
     y2="25.66666"
     y1="25.66666"
     style="fill:none;stroke:#787878;stroke-width:0.9375;stroke-linecap:round" />
  <g
     id="g4210"
     transform="matrix(1.25,0,0,1.25,21.101044,26.541903)">
    <text
       id="text4212"
       font-size="3.5"
       style="font-size:3.5px;font-family:DroidSans;fill:#787878">OUT</text>
  </g>
  <text
     sodipodi:linespacing="125%"
     id="text4351"
     font-size="2.5"
     style="font-style:normal;font-variant:normal;font-weight:normal;font-stretch:normal;font-size:3.75px;line-height:125%;font-family:DroidSans;-inkscape-font-specification:'DroidSans, Normal';text-align:start;writing-mode:lr;text-anchor:start;fill:#8c8c8c;"
     x="8.7639694"
     y="5.7927585">
    <tspan
       id="tspan4353"
       x="8.7639694"
       y="5.7927585"
       style="-inkscape-font-specification:'DroidSans, Normal';font-family:DroidSans;font-weight:normal;font-style:normal;font-stretch:normal;font-variant:normal;font-size:3.75px;text-anchor:start;text-align:start;writing-mode:lr;line-height:125%;">0</tspan>
  </text>
  <g
     transform="matrix(1.25,0,0,1.25,38.018412,14.950792)"
     id="g4303">
    <text
       sodipodi:linespacing="125%"
       style="font-style:normal;font-variant:normal;font-weight:normal;font-stretch:normal;font-size:4.25px;line-height:125%;font-family:DroidSans;-inkscape-font-specification:'DroidSans, Normal';text-align:start;writing-mode:lr-tb;text-anchor:start"
       id="text4305"
       font-size="4.25">
      <tspan
         y="0"
         x="0"
         id="tspan4279">DC/DC</tspan>
    </text>
  </g>
</svg>
