<?xml version="1.0" encoding="UTF-8" standalone="no"?>
<svg
   xmlns:dc="http://purl.org/dc/elements/1.1/"
   xmlns:cc="http://creativecommons.org/ns#"
   xmlns:rdf="http://www.w3.org/1999/02/22-rdf-syntax-ns#"
   xmlns:svg="http://www.w3.org/2000/svg"
   xmlns="http://www.w3.org/2000/svg"
   xmlns:sodipodi="http://sodipodi.sourceforge.net/DTD/sodipodi-0.dtd"
   xmlns:inkscape="http://www.inkscape.org/namespaces/inkscape"
   version="1.1"
   id="svg2"
   viewBox="0 0 24.174387 31.999999"
   height="9.0311108mm"
   width="6.8225493mm"
   inkscape:version="0.91 r13725"
   sodipodi:docname="AE-MICRO-SD-DIP_アイコン.svg">
  <sodipodi:namedview
     pagecolor="#ffffff"
     bordercolor="#666666"
     borderopacity="1"
     objecttolerance="10"
     gridtolerance="10"
     guidetolerance="10"
     inkscape:pageopacity="0"
     inkscape:pageshadow="2"
     inkscape:window-width="1128"
     inkscape:window-height="860"
     id="namedview171"
     showgrid="false"
     inkscape:zoom="2.4954503"
     inkscape:cx="-56.634644"
     inkscape:cy="47.301055"
     inkscape:window-x="637"
     inkscape:window-y="92"
     inkscape:window-maximized="0"
     inkscape:current-layer="svg2"
     fit-margin-top="0"
     fit-margin-left="0"
     fit-margin-right="0"
     fit-margin-bottom="0" />
  <defs
     id="defs4" />
  <metadata
     id="metadata7">
    <rdf:RDF>
      <cc:Work
         rdf:about="">
        <dc:format>image/svg+xml</dc:format>
        <dc:type
           rdf:resource="http://purl.org/dc/dcmitype/StillImage" />
        <dc:title></dc:title>
      </cc:Work>
    </rdf:RDF>
  </metadata>
  <g
     id="g4296"
     transform="matrix(0.33825884,0,0,0.33825884,-0.00536041,0.00507344)">
    <rect
       style="fill:none"
       id="connector10"
       y="84.705742"
       x="61.27005"
       height="6.4851952"
       width="6.5009251" />
    <rect
       style="fill:none"
       id="connector9"
       y="75.565453"
       x="61.27005"
       height="6.4851952"
       width="6.5009251" />
    <rect
       style="fill:none"
       id="connector8"
       y="66.425163"
       x="61.27005"
       height="6.4851952"
       width="6.5009251" />
    <rect
       style="fill:none"
       id="connector7"
       y="57.284908"
       x="61.27005"
       height="6.4851952"
       width="6.5009251" />
    <rect
       style="fill:none"
       id="connector6"
       y="48.144619"
       x="61.233185"
       height="6.4851952"
       width="6.5009251" />
    <rect
       style="fill:none"
       id="connector5"
       y="39.125942"
       x="61.27005"
       height="6.4851952"
       width="6.5009251" />
    <rect
       style="fill:none"
       id="connector4"
       y="30.065363"
       x="61.360168"
       height="6.4851952"
       width="6.5009251" />
    <rect
       style="fill:none"
       id="connector3"
       y="21.146875"
       x="61.249359"
       height="6.4851952"
       width="6.5009251" />
    <rect
       style="fill:none"
       id="connector2"
       y="12.042963"
       x="61.239685"
       height="6.4851952"
       width="6.5009251" />
    <rect
       style="fill:none"
       id="connector1"
       y="3.1086679"
       x="61.199677"
       height="6.4851952"
       width="6.5009251" />
    <rect
       width="70.712135"
       height="93.852455"
       x="0.39601323"
       y="0.35982904"
       id="Red Background"
       style="fill:#4bbf43;fill-opacity:1;stroke:#ffffff;stroke-width:0.74965549;stroke-miterlimit:4;stroke-dasharray:none;stroke-dashoffset:0;stroke-opacity:1" />
    <text
       transform="scale(1.0416893,0.95997917)"
       x="55.973457"
       y="8.5944786"
       id="CD"
       style="font-size:5.1538806px;font-family:DroidSans;text-anchor:end;fill:#ffffff">CDA</text>
    <text
       transform="scale(1.0416893,0.95997917)"
       x="55.973457"
       y="17.965168"
       id="DO"
       style="font-size:5.1538806px;font-family:DroidSans;text-anchor:end;fill:#ffffff">CDB</text>
    <text
       transform="scale(1.0416893,0.95997917)"
       x="55.973457"
       y="27.335859"
       id="GND"
       style="font-size:5.1538806px;font-family:DroidSans;text-anchor:end;fill:#ffffff">NC0</text>
    <text
       transform="scale(1.0416893,0.95997917)"
       x="55.973457"
       y="36.706551"
       id="SCK"
       style="font-size:5.1538806px;font-family:DroidSans;text-anchor:end;fill:#ffffff">MISO</text>
    <text
       transform="scale(1.0416893,0.95997917)"
       x="55.973457"
       y="46.077244"
       id="VCC"
       style="font-size:5.1538806px;font-family:DroidSans;text-anchor:end;fill:#ffffff">GND</text>
    <text
       transform="scale(1.0416893,0.95997917)"
       x="55.973457"
       y="55.447937"
       id="DI"
       style="font-size:5.1538806px;font-family:DroidSans;text-anchor:end;fill:#ffffff">SCK</text>
    <text
       transform="scale(1.0416893,0.95997917)"
       x="55.973457"
       y="64.818626"
       id="CS"
       style="font-size:5.1538806px;font-family:DroidSans;text-anchor:end;fill:#ffffff">VCC</text>
    <text
       transform="scale(1.0416893,0.95997917)"
       x="55.973457"
       y="74.189323"
       id="xx1"
       style="font-size:5.1538806px;font-family:DroidSans;text-anchor:end;fill:#ffffff">MOSI</text>
    <text
       transform="scale(1.0416893,0.95997917)"
       x="55.973457"
       y="83.560013"
       id="xx2"
       style="font-size:5.1538806px;font-family:DroidSans;text-anchor:end;fill:#ffffff">SS</text>
    <text
       transform="scale(1.0416893,0.95997917)"
       x="55.973457"
       y="92.930702"
       id="xx3"
       style="font-size:5.1538806px;font-family:DroidSans;text-anchor:end;fill:#ffffff">NC1</text>
    <line
       id="line101"
       style="fill:none;stroke:#000000;stroke-width:0.74965537;stroke-linecap:round"
       y2="93.681046"
       x2="70.723846"
       y1="93.681046"
       x1="0.39601323"
       class="l20" />
    <line
       id="line103"
       style="fill:none;stroke:#000000;stroke-width:0.74965537;stroke-linecap:round"
       y2="0.89106804"
       x2="70.723846"
       y1="93.681046"
       x1="70.723846"
       class="l20" />
    <line
       id="line105"
       style="fill:none;stroke:#000000;stroke-width:0.74965537;stroke-linecap:round"
       y2="0.89106804"
       x2="0.39601323"
       y1="0.89106804"
       x1="70.723846"
       class="l20" />
    <line
       id="line107"
       style="fill:none;stroke:#000000;stroke-width:0.74965537;stroke-linecap:round"
       y2="93.681046"
       x2="0.39601323"
       y1="0.89106804"
       x1="0.39601323"
       class="l20" />
    <g
       transform="matrix(3.843051,0,0,3.5416021,-13.43897,69.42107)"
       id="White outline of gold pins"
       style="fill:#ffffff">
      <title
         id="title111">PART JP1</title>
      <line
         id="line127"
         style="fill:#ffffff;stroke:#ffffff;stroke-width:0.2032;stroke-linecap:round;stroke-opacity:1"
         y2="-18.415001"
         x2="19.049999"
         y1="-17.145"
         x1="19.049999"
         class="l21" />
      <line
         id="line129"
         style="fill:#ffffff;stroke:#ffffff;stroke-width:0.2032;stroke-linecap:round;stroke-opacity:1"
         y2="-19.049999"
         x2="19.684999"
         y1="-18.415001"
         x1="19.049999"
         class="l21" />
      <line
         id="line131"
         style="fill:#ffffff;stroke:#ffffff;stroke-width:0.2032;stroke-linecap:round;stroke-opacity:1"
         y2="-18.415001"
         x2="21.59"
         y1="-19.049999"
         x1="20.955"
         class="l21" />
      <line
         id="line133"
         style="fill:#ffffff;stroke:#ffffff;stroke-width:0.2032;stroke-linecap:round;stroke-opacity:1"
         y2="-14.605"
         x2="19.049999"
         y1="-13.97"
         x1="19.684999"
         class="l21" />
      <line
         id="line135"
         style="fill:#ffffff;stroke:#ffffff;stroke-width:0.2032;stroke-linecap:round;stroke-opacity:1"
         y2="-15.875"
         x2="19.049999"
         y1="-14.605"
         x1="19.049999"
         class="l21" />
      <line
         id="line137"
         style="fill:#ffffff;stroke:#ffffff;stroke-width:0.2032;stroke-linecap:round;stroke-opacity:1"
         y2="-16.51"
         x2="19.684999"
         y1="-15.875"
         x1="19.049999"
         class="l21" />
      <line
         id="line139"
         style="fill:#ffffff;stroke:#ffffff;stroke-width:0.2032;stroke-linecap:round;stroke-opacity:1"
         y2="-15.875"
         x2="21.59"
         y1="-16.51"
         x1="20.955"
         class="l21" />
      <line
         id="line141"
         style="fill:#ffffff;stroke:#ffffff;stroke-width:0.2032;stroke-linecap:round;stroke-opacity:1"
         y2="-14.605"
         x2="21.59"
         y1="-15.875"
         x1="21.59"
         class="l21" />
      <line
         id="line143"
         style="fill:#ffffff;stroke:#ffffff;stroke-width:0.2032;stroke-linecap:round;stroke-opacity:1"
         y2="-13.97"
         x2="20.955"
         y1="-14.605"
         x1="21.59"
         class="l21" />
      <line
         id="line145"
         style="fill:#ffffff;stroke:#ffffff;stroke-width:0.2032;stroke-linecap:round;stroke-opacity:1"
         y2="-16.51"
         x2="19.684999"
         y1="-17.145"
         x1="19.049999"
         class="l21" />
      <line
         id="line147"
         style="fill:#ffffff;stroke:#ffffff;stroke-width:0.2032;stroke-linecap:round;stroke-opacity:1"
         y2="-17.145"
         x2="21.59"
         y1="-16.51"
         x1="20.955"
         class="l21" />
      <line
         id="line149"
         style="fill:#ffffff;stroke:#ffffff;stroke-width:0.2032;stroke-linecap:round;stroke-opacity:1"
         y2="-17.145"
         x2="21.59"
         y1="-18.415001"
         x1="21.59"
         class="l21" />
      <line
         id="line151"
         style="fill:#ffffff;stroke:#ffffff;stroke-width:0.2032;stroke-linecap:round;stroke-opacity:1"
         y2="-10.795"
         x2="19.049999"
         y1="-9.5249996"
         x1="19.049999"
         class="l21" />
      <line
         id="line153"
         style="fill:#ffffff;stroke:#ffffff;stroke-width:0.2032;stroke-linecap:round;stroke-opacity:1"
         y2="-11.43"
         x2="19.684999"
         y1="-10.795"
         x1="19.049999"
         class="l21" />
      <line
         id="line155"
         style="fill:#ffffff;stroke:#ffffff;stroke-width:0.2032;stroke-linecap:round;stroke-opacity:1"
         y2="-10.795"
         x2="21.59"
         y1="-11.43"
         x1="20.955"
         class="l21" />
      <line
         id="line157"
         style="fill:#ffffff;stroke:#ffffff;stroke-width:0.2032;stroke-linecap:round;stroke-opacity:1"
         y2="-12.065"
         x2="19.049999"
         y1="-11.43"
         x1="19.684999"
         class="l21" />
      <line
         id="line159"
         style="fill:#ffffff;stroke:#ffffff;stroke-width:0.2032;stroke-linecap:round;stroke-opacity:1"
         y2="-13.335"
         x2="19.049999"
         y1="-12.065"
         x1="19.049999"
         class="l21" />
      <line
         id="line161"
         style="fill:#ffffff;stroke:#ffffff;stroke-width:0.2032;stroke-linecap:round;stroke-opacity:1"
         y2="-13.97"
         x2="19.684999"
         y1="-13.335"
         x1="19.049999"
         class="l21" />
      <line
         id="line163"
         style="fill:#ffffff;stroke:#ffffff;stroke-width:0.2032;stroke-linecap:round;stroke-opacity:1"
         y2="-13.335"
         x2="21.59"
         y1="-13.97"
         x1="20.955"
         class="l21" />
      <line
         id="line165"
         style="fill:#ffffff;stroke:#ffffff;stroke-width:0.2032;stroke-linecap:round;stroke-opacity:1"
         y2="-12.065"
         x2="21.59"
         y1="-13.335"
         x1="21.59"
         class="l21" />
      <line
         id="line167"
         style="fill:#ffffff;stroke:#ffffff;stroke-width:0.2032;stroke-linecap:round;stroke-opacity:1"
         y2="-11.43"
         x2="20.955"
         y1="-12.065"
         x1="21.59"
         class="l21" />
      <line
         id="line169"
         style="fill:#ffffff;stroke:#ffffff;stroke-width:0.2032;stroke-linecap:round;stroke-opacity:1"
         y2="-6.9850001"
         x2="19.049999"
         y1="-6.3499999"
         x1="19.684999"
         class="l21" />
      <line
         id="line171"
         style="fill:#ffffff;stroke:#ffffff;stroke-width:0.2032;stroke-linecap:round;stroke-opacity:1"
         y2="-8.2550001"
         x2="19.049999"
         y1="-6.9850001"
         x1="19.049999"
         class="l21" />
      <line
         id="line173"
         style="fill:#ffffff;stroke:#ffffff;stroke-width:0.2032;stroke-linecap:round;stroke-opacity:1"
         y2="-8.8900003"
         x2="19.684999"
         y1="-8.2550001"
         x1="19.049999"
         class="l21" />
      <line
         id="line175"
         style="fill:#ffffff;stroke:#ffffff;stroke-width:0.2032;stroke-linecap:round;stroke-opacity:1"
         y2="-8.2550001"
         x2="21.59"
         y1="-8.8900003"
         x1="20.955"
         class="l21" />
      <line
         id="line177"
         style="fill:#ffffff;stroke:#ffffff;stroke-width:0.2032;stroke-linecap:round;stroke-opacity:1"
         y2="-6.9850001"
         x2="21.59"
         y1="-8.2550001"
         x1="21.59"
         class="l21" />
      <line
         id="line179"
         style="fill:#ffffff;stroke:#ffffff;stroke-width:0.2032;stroke-linecap:round;stroke-opacity:1"
         y2="-6.3499999"
         x2="20.955"
         y1="-6.9850001"
         x1="21.59"
         class="l21" />
      <line
         id="line181"
         style="fill:#ffffff;stroke:#ffffff;stroke-width:0.2032;stroke-linecap:round;stroke-opacity:1"
         y2="-8.8900003"
         x2="19.684999"
         y1="-9.5249996"
         x1="19.049999"
         class="l21" />
      <line
         id="line183"
         style="fill:#ffffff;stroke:#ffffff;stroke-width:0.2032;stroke-linecap:round;stroke-opacity:1"
         y2="-9.5249996"
         x2="21.59"
         y1="-8.8900003"
         x1="20.955"
         class="l21" />
      <line
         id="line185"
         style="fill:#ffffff;stroke:#ffffff;stroke-width:0.2032;stroke-linecap:round;stroke-opacity:1"
         y2="-9.5249996"
         x2="21.59"
         y1="-10.795"
         x1="21.59"
         class="l21" />
      <line
         id="line187"
         style="fill:#ffffff;stroke:#ffffff;stroke-width:0.2032;stroke-linecap:round;stroke-opacity:1"
         y2="-3.175"
         x2="19.049999"
         y1="-1.905"
         x1="19.049999"
         class="l21" />
      <line
         id="line189"
         style="fill:#ffffff;stroke:#ffffff;stroke-width:0.2032;stroke-linecap:round;stroke-opacity:1"
         y2="-3.8099999"
         x2="19.684999"
         y1="-3.175"
         x1="19.049999"
         class="l21" />
      <line
         id="line191"
         style="fill:#ffffff;stroke:#ffffff;stroke-width:0.2032;stroke-linecap:round;stroke-opacity:1"
         y2="-3.175"
         x2="21.59"
         y1="-3.8099999"
         x1="20.955"
         class="l21" />
      <line
         id="line193"
         style="fill:#ffffff;stroke:#ffffff;stroke-width:0.2032;stroke-linecap:round;stroke-opacity:1"
         y2="-4.4450002"
         x2="19.049999"
         y1="-3.8099999"
         x1="19.684999"
         class="l21" />
      <line
         id="line195"
         style="fill:#ffffff;stroke:#ffffff;stroke-width:0.2032;stroke-linecap:round;stroke-opacity:1"
         y2="-5.7150002"
         x2="19.049999"
         y1="-4.4450002"
         x1="19.049999"
         class="l21" />
      <line
         id="line197"
         style="fill:#ffffff;stroke:#ffffff;stroke-width:0.2032;stroke-linecap:round;stroke-opacity:1"
         y2="-6.3499999"
         x2="19.684999"
         y1="-5.7150002"
         x1="19.049999"
         class="l21" />
      <line
         id="line199"
         style="fill:#ffffff;stroke:#ffffff;stroke-width:0.2032;stroke-linecap:round;stroke-opacity:1"
         y2="-5.7150002"
         x2="21.59"
         y1="-6.3499999"
         x1="20.955"
         class="l21" />
      <line
         id="line201"
         style="fill:#ffffff;stroke:#ffffff;stroke-width:0.2032;stroke-linecap:round;stroke-opacity:1"
         y2="-4.4450002"
         x2="21.59"
         y1="-5.7150002"
         x1="21.59"
         class="l21" />
      <line
         id="line203"
         style="fill:#ffffff;stroke:#ffffff;stroke-width:0.2032;stroke-linecap:round;stroke-opacity:1"
         y2="-3.8099999"
         x2="20.955"
         y1="-4.4450002"
         x1="21.59"
         class="l21" />
      <line
         id="line205"
         style="fill:#ffffff;stroke:#ffffff;stroke-width:0.2032;stroke-linecap:round;stroke-opacity:1"
         y2="6.4000001"
         x2="20.955"
         y1="6.4000001"
         x1="19.684999"
         class="l21" />
      <line
         id="line207"
         style="fill:#ffffff;stroke:#ffffff;stroke-width:0.2032;stroke-linecap:round;stroke-opacity:1"
         y2="-1.27"
         x2="19.684999"
         y1="-1.905"
         x1="19.049999"
         class="l21" />
      <line
         id="line209"
         style="fill:#ffffff;stroke:#ffffff;stroke-width:0.2032;stroke-linecap:round;stroke-opacity:1"
         y2="-1.905"
         x2="21.59"
         y1="-1.27"
         x1="20.955"
         class="l21" />
      <line
         id="line211"
         style="fill:#ffffff;stroke:#ffffff;stroke-width:0.2032;stroke-linecap:round;stroke-opacity:1"
         y2="-1.905"
         x2="21.59"
         y1="-3.175"
         x1="21.59"
         class="l21" />
      <line
         id="line213"
         style="fill:#ffffff;stroke:#ffffff;stroke-width:0.2032;stroke-linecap:round;stroke-opacity:1"
         y2="-19.049999"
         x2="20.955"
         y1="-19.049999"
         x1="19.684999"
         class="l21" />
      <line
         id="line215"
         style="fill:#ffffff;stroke:#ffffff;stroke-width:0.2032;stroke-linecap:round;stroke-opacity:1"
         y2="5.5999999"
         x2="21.59"
         y1="4.3299999"
         x1="21.59"
         class="l21" />
      <line
         id="line217"
         style="fill:#ffffff;stroke:#ffffff;stroke-width:0.2032;stroke-linecap:round;stroke-opacity:1"
         y2="3.2"
         x2="21.59"
         y1="1.9299999"
         x1="21.59"
         class="l21" />
      <line
         id="line219"
         style="fill:#ffffff;stroke:#ffffff;stroke-width:0.2032;stroke-linecap:round;stroke-opacity:1"
         y2="0.69999999"
         x2="21.59"
         y1="-0.56999999"
         x1="21.59"
         class="l21" />
      <line
         id="line221"
         style="fill:#ffffff;stroke:#ffffff;stroke-width:0.2032;stroke-linecap:round;stroke-opacity:1"
         y2="5.5999999"
         x2="19.049999"
         y1="4.3299999"
         x1="19.049999"
         class="l21" />
      <line
         id="line223"
         style="fill:#ffffff;stroke:#ffffff;stroke-width:0.2032;stroke-linecap:round;stroke-opacity:1"
         y2="3.2"
         x2="19.049999"
         y1="1.9299999"
         x1="19.049999"
         class="l21" />
      <line
         id="line225"
         style="fill:#ffffff;stroke:#ffffff;stroke-width:0.2032;stroke-linecap:round;stroke-opacity:1"
         y2="0.69999999"
         x2="19.049999"
         y1="-0.57999998"
         x1="19.049999"
         class="l21" />
      <line
         id="line227"
         style="fill:#ffffff;stroke:#ffffff;stroke-width:0.2032;stroke-linecap:round;stroke-opacity:1"
         y2="6.3499999"
         x2="20.955"
         y1="5.7149997"
         x1="21.59"
         class="l21" />
      <line
         id="line229"
         style="fill:#ffffff;stroke:#ffffff;stroke-width:0.2032;stroke-linecap:round;stroke-opacity:1"
         y2="6.3499999"
         x2="19.684999"
         y1="5.7149997"
         x1="19.049999"
         class="l21" />
      <line
         id="line231"
         style="fill:#ffffff;stroke:#ffffff;stroke-width:0.2032;stroke-linecap:round;stroke-opacity:1"
         y2="3.7149999"
         x2="19.684999"
         y1="4.3499999"
         x1="19.049999"
         class="l21" />
      <line
         id="line233"
         style="fill:#ffffff;stroke:#ffffff;stroke-width:0.2032;stroke-linecap:round;stroke-opacity:1"
         y2="4.3499999"
         x2="21.59"
         y1="3.7149999"
         x1="20.955"
         class="l21" />
      <line
         id="line235"
         style="fill:#ffffff;stroke:#ffffff;stroke-width:0.2032;stroke-linecap:round;stroke-opacity:1"
         y2="3.75"
         x2="20.955"
         y1="3.115"
         x1="21.59"
         class="l21" />
      <line
         id="line237"
         style="fill:#ffffff;stroke:#ffffff;stroke-width:0.2032;stroke-linecap:round;stroke-opacity:1"
         y2="3.75"
         x2="19.684999"
         y1="3.115"
         x1="19.049999"
         class="l21" />
      <line
         id="line239"
         style="fill:#ffffff;stroke:#ffffff;stroke-width:0.2032;stroke-linecap:round;stroke-opacity:1"
         y2="-1.2850001"
         x2="19.684999"
         y1="-0.64999992"
         x1="19.049999"
         class="l21" />
      <line
         id="line241"
         style="fill:#ffffff;stroke:#ffffff;stroke-width:0.2032;stroke-linecap:round;stroke-opacity:1"
         y2="-0.64999992"
         x2="21.59"
         y1="-1.2850001"
         x1="20.955"
         class="l21" />
      <line
         id="line243"
         style="fill:#ffffff;stroke:#ffffff;stroke-width:0.2032;stroke-linecap:round;stroke-opacity:1"
         y2="1.3500001"
         x2="20.955"
         y1="0.71499991"
         x1="21.59"
         class="l21" />
      <line
         id="line245"
         style="fill:#ffffff;stroke:#ffffff;stroke-width:0.2032;stroke-linecap:round;stroke-opacity:1"
         y2="1.3500001"
         x2="19.684999"
         y1="0.71499991"
         x1="19.049999"
         class="l21" />
      <line
         id="line247"
         style="fill:#ffffff;stroke:#ffffff;stroke-width:0.2032;stroke-linecap:round;stroke-opacity:1"
         y2="1.3149999"
         x2="19.684999"
         y1="1.95"
         x1="19.049999"
         class="l21" />
      <line
         id="line249"
         style="fill:#ffffff;stroke:#ffffff;stroke-width:0.2032;stroke-linecap:round;stroke-opacity:1"
         y2="1.95"
         x2="21.59"
         y1="1.3150001"
         x1="20.955"
         class="l21" />
    </g>
    <g
       id="MicroSD Metal Slot"
       transform="matrix(0,-3.543307,2.4953146,0,216.24942,-8.46698)">
      <path
         style="fill:#000000;fill-opacity:1;fill-rule:nonzero;stroke:none"
         id="path5519"
         d="m -22.467536,-81.166665 3.51,0 0,11.150001 -3.51,0 z"
         inkscape:connector-curvature="0" />
      <path
         style="fill:#000000;fill-opacity:1;fill-rule:nonzero;stroke:none"
         id="path5521"
         d="m -17.657536,-78.086664 8.5400011,0 0,7.94 -8.5400011,0 z"
         inkscape:connector-curvature="0" />
      <path
         style="fill:#404040;fill-opacity:1;fill-rule:nonzero;stroke:none"
         id="path5523"
         d="m -16.697535,-70.016664 0,-0.4 c 0,-0.16 0.08,-0.3 0.189999,-0.3 l 0.75,0 c 0.11,0 0.190001,0.14 0.190001,0.3 l 0,0.4"
         inkscape:connector-curvature="0" />
      <path
         style="fill:#000000;fill-opacity:1;fill-rule:nonzero;stroke:none"
         id="path5525"
         d="m -15.627536,-71.316664 -0.04,0.78 c -0.01,0.14 -0.09,0.26 -0.19,0.26 l -0.55,0 c -0.100001,0 -0.18,-0.12 -0.190001,-0.26 l -0.04,-0.83"
         inkscape:connector-curvature="0" />
      <path
         style="fill:#404040;fill-opacity:1;fill-rule:nonzero;stroke:none"
         id="path5527"
         d="m -11.067535,-70.016664 0,-0.4 c 0,-0.16 0.09,-0.3 0.19,-0.3 l 0.76,0 c 0.1,0 0.19,0.14 0.19,0.3 l 0,0.4"
         inkscape:connector-curvature="0" />
      <path
         style="fill:#000000;fill-opacity:1;fill-rule:nonzero;stroke:none"
         id="path5529"
         d="m -9.9975352,-71.316664 -0.04,0.78 c 0,0.14 -0.09,0.26 -0.18,0.26 l -0.56,0 c -0.09,0 -0.18,-0.12 -0.18,-0.26 l -0.04,-0.83"
         inkscape:connector-curvature="0" />
      <path
         style="fill:#404040;fill-opacity:1;fill-rule:nonzero;stroke:none"
         id="path5531"
         d="m -18.007536,-80.426665 8.8900011,0 0,1.350001 -8.8900011,0 z"
         inkscape:connector-curvature="0" />
      <path
         style="fill:#b7b7b7;fill-opacity:1;fill-rule:nonzero;stroke:none"
         id="path5533"
         d="m -14.277535,-82.186665 0.36,0 0,1.660001 -0.36,0 z"
         inkscape:connector-curvature="0" />
      <path
         style="fill:#b7b7b7;fill-opacity:1;fill-rule:nonzero;stroke:none"
         id="path5535"
         d="m -15.347536,-82.186665 0.350001,0 0,1.660001 -0.350001,0 z"
         inkscape:connector-curvature="0" />
      <path
         style="fill:#b7b7b7;fill-opacity:1;fill-rule:nonzero;stroke:none"
         id="path5537"
         d="m -16.417535,-82.186665 0.349999,0 0,1.660001 -0.349999,0 z"
         inkscape:connector-curvature="0" />
      <path
         style="fill:#b7b7b7;fill-opacity:1;fill-rule:nonzero;stroke:none"
         id="path5539"
         d="m -17.487536,-82.186665 0.350001,0 0,1.660001 -0.350001,0 z"
         inkscape:connector-curvature="0" />
      <path
         style="fill:#b7b7b7;fill-opacity:1;fill-rule:nonzero;stroke:none"
         id="path5541"
         d="m -9.817535,-82.186665 0.3599999,0 0,1.660001 -0.3599999,0 z"
         inkscape:connector-curvature="0" />
      <path
         style="fill:#b7b7b7;fill-opacity:1;fill-rule:nonzero;stroke:none"
         id="path5543"
         d="m -10.887535,-82.186665 0.36,0 0,1.660001 -0.36,0 z"
         inkscape:connector-curvature="0" />
      <path
         style="fill:#b7b7b7;fill-opacity:1;fill-rule:nonzero;stroke:none"
         id="path5545"
         d="m -11.957535,-82.186665 0.35,0 0,1.660001 -0.35,0 z"
         inkscape:connector-curvature="0" />
      <path
         style="fill:#b7b7b7;fill-opacity:1;fill-rule:nonzero;stroke:none"
         id="path5547"
         d="m -13.027535,-82.186665 0.35,0 0,1.660001 -0.35,0 z"
         inkscape:connector-curvature="0" />
      <path
         style="fill:#000000;fill-opacity:1;fill-rule:nonzero;stroke:none"
         id="path5549"
         d="m -17.617536,-80.716665 0,0.100001 -0.1,0 0,0.899999 4.050001,0 0,-0.899999 -0.13,0 0,-0.100001 -0.6,0 0,0.100001 -0.47,0 0,-0.100001 -0.600001,0 0,0.100001 -0.47,0 0,-0.100001 -0.599999,0 0,0.100001 -0.480001,0 0,-0.100001 z"
         inkscape:connector-curvature="0" />
      <path
         style="fill:#000000;fill-opacity:1;fill-rule:nonzero;stroke:none"
         id="path5551"
         d="m -13.147535,-80.716665 0,0.100001 -0.09,0 0,0.899999 4.05,0 0,-0.899999 -0.1300001,0 0,-0.100001 -0.5999999,0 0,0.100001 -0.47,0 0,-0.100001 -0.6,0 0,0.100001 -0.48,0 0,-0.100001 -0.6,0 0,0.100001 -0.48,0 0,-0.100001 z"
         inkscape:connector-curvature="0" />
      <path
         style="fill:#b7b7b7;fill-opacity:1;fill-rule:nonzero;stroke:none"
         id="path5553"
         d="m -17.567535,-80.546665 0.509999,0 0,0.11 -0.509999,0 z"
         inkscape:connector-curvature="0" />
      <path
         style="fill:#b7b7b7;fill-opacity:1;fill-rule:nonzero;stroke:none"
         id="path5555"
         d="m -16.497536,-80.546665 0.510001,0 0,0.11 -0.510001,0 z"
         inkscape:connector-curvature="0" />
      <path
         style="fill:#b7b7b7;fill-opacity:1;fill-rule:nonzero;stroke:none"
         id="path5557"
         d="m -15.427535,-80.546665 0.509999,0 0,0.11 -0.509999,0 z"
         inkscape:connector-curvature="0" />
      <path
         style="fill:#b7b7b7;fill-opacity:1;fill-rule:nonzero;stroke:none"
         id="path5559"
         d="m -14.357535,-80.546665 0.52,0 0,0.11 -0.52,0 z"
         inkscape:connector-curvature="0" />
      <path
         style="fill:#b7b7b7;fill-opacity:1;fill-rule:nonzero;stroke:none"
         id="path5561"
         d="m -14.277535,-80.496664 0.36,0 0,0.769999 -0.36,0 z"
         inkscape:connector-curvature="0" />
      <path
         style="fill:#b7b7b7;fill-opacity:1;fill-rule:nonzero;stroke:none"
         id="path5563"
         d="m -15.347536,-80.496664 0.350001,0 0,0.769999 -0.350001,0 z"
         inkscape:connector-curvature="0" />
      <path
         style="fill:#b7b7b7;fill-opacity:1;fill-rule:nonzero;stroke:none"
         id="path5565"
         d="m -16.417535,-80.496664 0.349999,0 0,0.769999 -0.349999,0 z"
         inkscape:connector-curvature="0" />
      <path
         style="fill:#b7b7b7;fill-opacity:1;fill-rule:nonzero;stroke:none"
         id="path5567"
         d="m -17.487536,-80.496664 0.350001,0 0,0.769999 -0.350001,0 z"
         inkscape:connector-curvature="0" />
      <path
         style="fill:#000000;fill-opacity:1;fill-rule:nonzero;stroke:none"
         id="path5569"
         d="m -17.747536,-79.956664 4.310001,0 0,0.69 -4.310001,0 z"
         inkscape:connector-curvature="0" />
      <path
         style="fill:#b7b7b7;fill-opacity:1;fill-rule:nonzero;stroke:none"
         id="path5571"
         d="m -13.107535,-80.546665 0.51,0 0,0.11 -0.51,0 z"
         inkscape:connector-curvature="0" />
      <path
         style="fill:#b7b7b7;fill-opacity:1;fill-rule:nonzero;stroke:none"
         id="path5573"
         d="m -12.037535,-80.546665 0.51,0 0,0.11 -0.51,0 z"
         inkscape:connector-curvature="0" />
      <path
         style="fill:#b7b7b7;fill-opacity:1;fill-rule:nonzero;stroke:none"
         id="path5575"
         d="m -10.967535,-80.546665 0.51,0 0,0.11 -0.51,0 z"
         inkscape:connector-curvature="0" />
      <path
         style="fill:#b7b7b7;fill-opacity:1;fill-rule:nonzero;stroke:none"
         id="path5577"
         d="m -9.8975351,-80.546665 0.5200001,0 0,0.11 -0.5200001,0 z"
         inkscape:connector-curvature="0" />
      <path
         style="fill:#b7b7b7;fill-opacity:1;fill-rule:nonzero;stroke:none"
         id="path5579"
         d="m -9.817535,-80.496664 0.3599999,0 0,0.769999 -0.3599999,0 z"
         inkscape:connector-curvature="0" />
      <path
         style="fill:#b7b7b7;fill-opacity:1;fill-rule:nonzero;stroke:none"
         id="path5581"
         d="m -10.887535,-80.496664 0.36,0 0,0.769999 -0.36,0 z"
         inkscape:connector-curvature="0" />
      <path
         style="fill:#b7b7b7;fill-opacity:1;fill-rule:nonzero;stroke:none"
         id="path5583"
         d="m -11.957535,-80.496664 0.35,0 0,0.769999 -0.35,0 z"
         inkscape:connector-curvature="0" />
      <path
         style="fill:#b7b7b7;fill-opacity:1;fill-rule:nonzero;stroke:none"
         id="path5585"
         d="m -13.027535,-80.496664 0.35,0 0,0.769999 -0.35,0 z"
         inkscape:connector-curvature="0" />
      <path
         style="fill:#000000;fill-opacity:1;fill-rule:nonzero;stroke:none"
         id="path5587"
         d="m -13.287535,-79.956664 4.3100001,0 0,0.69 -4.3100001,0 z"
         inkscape:connector-curvature="0" />
      <path
         style="fill:#666666;fill-opacity:1;fill-rule:nonzero;stroke:none"
         id="path5589"
         d="m -9.1375351,-85.416665 -0.5299999,0.9 -8.580001,0 -0.49,-0.83 -0.81,0 -0.51,-0.93 -1.75,0 0,0.99 0.68,0 c 0.1,0 0.1,0.19 0,0.19 l -0.11,0 c -0.13,0 -0.18,0.03 -0.18,0.12 l 0,0.38 c 0,0.09 0.05,0.12 0.18,0.12 l 0.11,0 c 0.1,0 0.1,0.18 0,0.18 l -1.44,0 0,1.21 14.1700011,0 0,-2.33 -0.7400002,0 z"
         inkscape:connector-curvature="0" />
      <path
         style="fill:#606060;fill-opacity:1;fill-rule:nonzero;stroke:none"
         id="path5591"
         d="m -9.1375351,-85.296665 -0.5299999,0.9 -8.580001,0 -0.49,-0.83 -0.81,0 -0.51,-0.93 -1.75,0 0,1 0.68,0 c 0.1,0 0.1,0.18 0,0.18 l -0.11,0 c -0.13,0 -0.18,0.03 -0.18,0.12 l 0,0.38 c 0,0.09 0.05,0.12 0.18,0.12 l 0.11,0 c 0.1,0 0.1,0.18 0,0.18 l -1.44,0 0,14.160001 1.37,0 0.03,-0.24 c 0.01,-0.06 0.06,-0.11 0.11,-0.11 l 0.07,0 c 0.05,0 0.11,0.05 0.11,0.11 l 0.03,0.24 3.88,0 -0.19,-7.13 c -0.01,-0.12 0.06,-0.22 0.14,-0.22 0.09,0 0.160001,0.1 0.170001,0.22 l 0.31,6.57 c 0.01,0.12 0.08,0.22 0.169999,0.22 l 0.47,0 c 0.09,0 0.160001,-0.1 0.160001,-0.22 l 0.32,-6.57 c 0.01,-0.12 0.08,-0.22 0.16,-0.22 0.09,0 0.15,0.1 0.15,0.22 l -0.19,7.13 3.96,0 -0.19,-7.13 c 0,-0.12 0.07,-0.22 0.15,-0.22 0.08,0 0.16,0.1 0.16,0.22 l 0.32,6.57 c 0.01,0.12 0.08,0.22 0.16,0.22 l 0.48,0 c 0.08,0 0.15,-0.1 0.16,-0.22 l 0.32,-6.57 c 0,-0.12 0.08,-0.22 0.1599999,-0.22 0.08,0 0.15,0.1 0.15,0.22 l -0.1899999,7.13 1.2600001,0 0,-15.280001 -0.7400002,0 z m -11.0200009,5.46 0.14,0 c 0.05,0 0.1,0.04 0.1,0.100001 0,0.05 -0.02,0.1 -0.04,0.1 -0.03,0 -0.04,0.05 -0.04,0.11 l 0,4.79 c 0,0.06 -0.05,0.11 -0.11,0.11 l -2.33,0 0,-6.060001 0.46,0 c 0.05,0 0.11,0.05 0.12,0.11 l 0.41,2.950001 c 0.01,0.06 -0.02,0.14 -0.06,0.18 l -0.16,0.18 c -0.04,0.05 -0.07,0.13 -0.07,0.19 l 0,0.99 c 0,0.06 0.04,0.11 0.1,0.11 l 1.26,0 c 0.05,0 0.1,-0.05 0.1,-0.11 l 0,-0.93 c 0,-0.06 -0.04,-0.14 -0.08,-0.18 l -0.36,-0.31 c -0.04,-0.04 -0.08,-0.12 -0.08,-0.18 l -0.22,-2.890001 c -0.01,-0.06 0.03,-0.11 0.09,-0.11 l 0.95,0 c 0.03,0 0.06,0.05 0.06,0.1 0,0.06 -0.05,0.100001 -0.1,0.100001 l -0.14,0 c -0.05,0 -0.1,0.05 -0.1,0.11 l 0,0.43 c 0,0.06 0.05,0.109999 0.1,0.109999 z m 6.370001,-0.219999 c 0,0.12 -0.09,0.219999 -0.21,0.219999 l -3.42,0 c -0.110001,0 -0.200001,-0.1 -0.200001,-0.219999 l 0,-2.220001 c 0,-0.12 0.09,-0.22 0.200001,-0.22 l 3.42,0 c 0.12,0 0.21,0.1 0.21,0.22 l 0,2.220001 z m 4.4699999,0 c 0,0.12 -0.09,0.219999 -0.2099999,0.219999 l -3.42,0 c -0.11,0 -0.2,-0.1 -0.2,-0.219999 l 0,-2.220001 c 0,-0.12 0.09,-0.22 0.2,-0.22 l 3.42,0 c 0.1200001,0 0.2099999,0.1 0.2099999,0.22 l 0,2.220001 z"
         inkscape:connector-curvature="0" />
      <path
         style="fill:#ffffff;fill-opacity:1;fill-rule:nonzero;stroke:none"
         id="path5593"
         d="m -22.497536,-84.176665 0.36,0 0,3.49 -0.36,0 z"
         inkscape:connector-curvature="0" />
      <path
         style="fill:#ffffff;fill-opacity:1;fill-rule:nonzero;stroke:none"
         id="path5595"
         d="m -21.707536,-86.156665 0.51,0 0,1 -0.51,0 z"
         inkscape:connector-curvature="0" />
      <path
         style="fill:#ffffff;fill-opacity:1;fill-rule:nonzero;stroke:none"
         id="path5597"
         d="m -22.497536,-74.626664 0.36,0 0,4.61 -0.36,0 z"
         inkscape:connector-curvature="0" />
      <path
         style="fill:#ffffff;fill-opacity:1;fill-rule:nonzero;stroke:none"
         id="path5599"
         d="m -8.7075351,-85.296665 0.25,0 0,15.280001 -0.25,0 z"
         inkscape:connector-curvature="0" />
      <path
         style="fill:none;stroke:#ffffff;stroke-width:0.09px;stroke-linecap:round;stroke-linejoin:round;stroke-dasharray:none;stroke-opacity:1"
         id="path5601"
         d="m -21.817536,-80.606665 0.42,2.970001 c 0,0.06 -0.02,0.14 -0.06,0.19 l -0.17,0.21 c -0.04,0.05 -0.07,0.13 -0.07,0.19 l 0,0.9"
         inkscape:connector-curvature="0" />
      <path
         style="fill:#ffffff;fill-opacity:1;fill-rule:nonzero;stroke:none"
         id="path5603"
         d="m -22.497536,-80.686665 0.06,0 0,6.060001 -0.06,0 z"
         inkscape:connector-curvature="0" />
      <path
         style="fill:none;stroke:#ffffff;stroke-width:0.07000001px;stroke-linecap:round;stroke-linejoin:miter;stroke-miterlimit:4;stroke-dasharray:none;stroke-opacity:1"
         id="path5605"
         d="m -15.447535,-77.176664 c 0,0 -0.300001,6.34 -0.320001,6.52 -0.01,0.18 -0.09,0.18 -0.09,0.18"
         inkscape:connector-curvature="0" />
      <path
         style="fill:none;stroke:#ffffff;stroke-width:0.07000001px;stroke-linecap:round;stroke-linejoin:miter;stroke-miterlimit:4;stroke-dasharray:none;stroke-opacity:1"
         id="path5607"
         d="m -16.817536,-77.186664 c 0,0 0.3,6.35 0.32,6.53 0.02,0.18 0.09,0.18 0.09,0.18"
         inkscape:connector-curvature="0" />
      <path
         style="fill:none;stroke:#ffffff;stroke-width:0.07000001px;stroke-linecap:round;stroke-linejoin:miter;stroke-miterlimit:4;stroke-dasharray:none;stroke-opacity:1"
         id="path5609"
         d="m -9.817535,-77.176664 c 0,0 -0.29,6.34 -0.31,6.52 -0.02,0.18 -0.09,0.18 -0.09,0.18"
         inkscape:connector-curvature="0" />
      <path
         style="fill:none;stroke:#ffffff;stroke-width:0.07000001px;stroke-linecap:round;stroke-linejoin:miter;stroke-miterlimit:4;stroke-dasharray:none;stroke-opacity:1"
         id="path5611"
         d="m -11.177535,-77.186664 c 0,0 0.3,6.35 0.32,6.53 0.02,0.18 0.09,0.18 0.09,0.18"
         inkscape:connector-curvature="0" />
      <path
         style="fill:none;stroke:#ffffff;stroke-width:0.07000001px;stroke-linecap:round;stroke-linejoin:miter;stroke-miterlimit:4;stroke-dasharray:none;stroke-opacity:1"
         id="path5613"
         d="m -17.657536,-82.296665 0,2.250001 c 0,0.13 0.11,0.25 0.240001,0.25 l 3.43,0 c 0.13,0 0.23,-0.12 0.23,-0.25 l 0,-2.250001"
         inkscape:connector-curvature="0" />
      <path
         style="fill:none;stroke:#353535;stroke-width:0.07000001px;stroke-linecap:round;stroke-linejoin:miter;stroke-miterlimit:4;stroke-dasharray:none;stroke-opacity:1"
         id="path5615"
         d="m -17.417535,-82.536665 3.47,0"
         inkscape:connector-curvature="0" />
      <path
         style="fill:none;stroke:#ffffff;stroke-width:0.07000001px;stroke-linecap:round;stroke-linejoin:miter;stroke-miterlimit:4;stroke-dasharray:none;stroke-opacity:1"
         id="path5617"
         d="m -13.187535,-82.296665 0,2.250001 c 0,0.13 0.11,0.25 0.24,0.25 l 3.43,0 c 0.1300001,0 0.2299999,-0.12 0.2299999,-0.25 l 0,-2.250001"
         inkscape:connector-curvature="0" />
      <path
         style="fill:none;stroke:#353535;stroke-width:0.07000001px;stroke-linecap:round;stroke-linejoin:miter;stroke-miterlimit:4;stroke-dasharray:none;stroke-opacity:1"
         id="path5619"
         d="m -12.947535,-82.536665 3.4799999,0"
         inkscape:connector-curvature="0" />
      <path
         style="fill:#ffffff;fill-opacity:1;fill-rule:nonzero;stroke:none"
         id="path5621"
         d="m -22.337536,-80.606665 0.2,0 0,5.980001 -0.2,0 z"
         inkscape:connector-curvature="0" />
      <path
         style="fill:none;stroke:#ffffff;stroke-width:0.07000001px;stroke-linecap:round;stroke-linejoin:miter;stroke-miterlimit:4;stroke-dasharray:none;stroke-opacity:1"
         id="path5623"
         d="m -17.197536,-77.166664 0.190001,7.02"
         inkscape:connector-curvature="0" />
      <path
         style="fill:none;stroke:#ffffff;stroke-width:0.07000001px;stroke-linecap:round;stroke-linejoin:miter;stroke-miterlimit:4;stroke-dasharray:none;stroke-opacity:1"
         id="path5625"
         d="m -15.067536,-77.166664 -0.189999,7.02"
         inkscape:connector-curvature="0" />
      <path
         style="fill:none;stroke:#ffffff;stroke-width:0.07000001px;stroke-linecap:round;stroke-linejoin:miter;stroke-miterlimit:4;stroke-dasharray:none;stroke-opacity:1"
         id="path5627"
         d="m -11.557535,-77.166664 0.19,7.02"
         inkscape:connector-curvature="0" />
      <path
         style="fill:none;stroke:#ffffff;stroke-width:0.07000001px;stroke-linecap:round;stroke-linejoin:miter;stroke-miterlimit:4;stroke-dasharray:none;stroke-opacity:1"
         id="path5629"
         d="m -9.4275351,-77.166664 -0.19,7.02"
         inkscape:connector-curvature="0" />
      <path
         style="fill:#404040;fill-opacity:1;fill-rule:nonzero;stroke:none"
         id="path5631"
         d="m -21.077536,-75.976664 0.08,0 0,1.35 -0.08,0 z"
         inkscape:connector-curvature="0" />
      <path
         style="fill:#353535;fill-opacity:1;fill-rule:nonzero;stroke:none"
         id="path5633"
         d="m -21.077536,-75.976664 0.08,0 0,0.06 -0.08,0 z"
         inkscape:connector-curvature="0" />
      <path
         style="fill:#353535;fill-opacity:1;fill-rule:nonzero;stroke:none"
         id="path5635"
         d="m -21.077536,-74.686664 0.08,0 0,0.06 -0.08,0 z"
         inkscape:connector-curvature="0" />
      <path
         style="fill:none;stroke:#ffffff;stroke-width:0.07000001px;stroke-linecap:butt;stroke-linejoin:miter;stroke-miterlimit:4;stroke-dasharray:none;stroke-opacity:1"
         id="path5637"
         d="m -20.067536,-74.606664 c 0.05,0 0.1,-0.04 0.1,-0.1 l 0,-4.8 c 0,-0.06 0.02,-0.1 0.04,-0.1"
         inkscape:connector-curvature="0" />
      <path
         style="fill:#ffffff;fill-opacity:1;fill-rule:nonzero;stroke:none"
         id="path5639"
         d="m -20.017536,-79.836665 -0.14,0 c -0.05,0 -0.1,-0.05 -0.1,-0.109999 l 0,-0.43 c 0,-0.06 0.05,-0.11 0.1,-0.11 l 0.14,0"
         inkscape:connector-curvature="0" />
      <path
         style="fill:none;stroke:#ffffff;stroke-width:0.07000001px;stroke-linecap:round;stroke-linejoin:miter;stroke-miterlimit:4;stroke-dasharray:none;stroke-opacity:1"
         id="path5641"
         d="m -20.077536,-86.116665 0.51,0.93 0.81,0 0.49,0.83 8.620001,0 0.5300001,-0.9"
         inkscape:connector-curvature="0" />
      <path
         style="fill:#ffffff;fill-opacity:1;fill-rule:nonzero;stroke:none"
         id="path5643"
         d="m -21.237536,-84.976665 c -0.13,0 -0.18,0.03 -0.18,0.12 l 0,0.38 c 0,0.09 0.05,0.12 0.18,0.12 l 0,-0.62 z"
         inkscape:connector-curvature="0" />
    </g>
    <g
       id="Gold Connector Pins"
       transform="matrix(3.543307,0,0,3.543307,105.18364,7.91376)">
      <circle
         style="fill:none;stroke:#9a916c;stroke-width:1.22399998;stroke-miterlimit:4;stroke-dasharray:none"
         id="1"
         transform="matrix(0,0.3527778,-0.3527778,0,-10.203454,-1.6859056)"
         r="2.052"
         cy="3.5999999"
         cx="3.5999999" />
      <circle
         style="fill:none;stroke:#9a916c;stroke-width:1.22399998"
         id="2"
         transform="matrix(0,0.3527778,-0.3527778,0,-10.203454,-1.6859056)"
         r="2.052"
         cy="3.5999999"
         cx="10.8" />
      <circle
         style="fill:none;stroke:#9a916c;stroke-width:1.22399998"
         id="3"
         transform="matrix(0,0.3527778,-0.3527778,0,-10.203454,-1.6859056)"
         r="2.052"
         cy="3.5999999"
         cx="18" />
      <circle
         style="fill:none;stroke:#9a916c;stroke-width:1.22399998"
         id="4"
         transform="matrix(0,0.3527778,-0.3527778,0,-10.203454,-1.6859056)"
         r="2.052"
         cy="3.5999999"
         cx="25.200001" />
      <circle
         style="fill:none;stroke:#9a916c;stroke-width:1.22399998"
         id="5"
         transform="matrix(0,0.3527778,-0.3527778,0,-10.203454,-1.6859056)"
         r="2.052"
         cy="3.5999999"
         cx="32.400002" />
      <circle
         style="fill:none;stroke:#9a916c;stroke-width:1.22399998"
         id="6"
         transform="matrix(0,0.3527778,-0.3527778,0,-10.203454,-1.6859056)"
         r="2.052"
         cy="3.5999999"
         cx="39.599998" />
      <circle
         style="fill:none;stroke:#9a916c;stroke-width:1.22399998"
         id="7"
         transform="matrix(0,0.3527778,-0.3527778,0,-10.203454,-1.6859056)"
         r="2.052"
         cy="3.5999999"
         cx="46.799999" />
      <circle
         style="fill:none;stroke:#9a916c;stroke-width:1.22399998"
         id="8"
         transform="matrix(0,0.3527778,-0.3527778,0,-10.203454,-1.6859056)"
         r="2.052"
         cy="3.5999999"
         cx="54" />
      <circle
         style="fill:none;stroke:#9a916c;stroke-width:1.22399998"
         id="9"
         transform="matrix(0,0.3527778,-0.3527778,0,-10.203454,-1.6859056)"
         r="2.052"
         cy="3.5999999"
         cx="61.200001" />
      <circle
         style="fill:none;stroke:#9a916c;stroke-width:1.22399998"
         id="10"
         transform="matrix(0,0.3527778,-0.3527778,0,-10.203454,-1.6859056)"
         r="2.052"
         cy="3.5999999"
         cx="68.400002" />
    </g>
  </g>
</svg>
