<?xml version="1.0" encoding="UTF-8" standalone="no"?>
<svg
   xmlns:dc="http://purl.org/dc/elements/1.1/"
   xmlns:cc="http://creativecommons.org/ns#"
   xmlns:rdf="http://www.w3.org/1999/02/22-rdf-syntax-ns#"
   xmlns:svg="http://www.w3.org/2000/svg"
   xmlns="http://www.w3.org/2000/svg"
   xmlns:sodipodi="http://sodipodi.sourceforge.net/DTD/sodipodi-0.dtd"
   xmlns:inkscape="http://www.inkscape.org/namespaces/inkscape"
   width="9.0311108mm"
   height="13.331745mm"
   viewBox="0 0 31.999999 47.238467"
   id="svg3342"
   version="1.1"
   inkscape:version="0.91 r13725"
   sodipodi:docname="アイコン.svg">
  <sodipodi:namedview
     pagecolor="#ffffff"
     bordercolor="#666666"
     borderopacity="1"
     objecttolerance="10"
     gridtolerance="10"
     guidetolerance="10"
     inkscape:pageopacity="0"
     inkscape:pageshadow="2"
     inkscape:window-width="1608"
     inkscape:window-height="780"
     id="namedview17"
     showgrid="false"
     fit-margin-top="0"
     fit-margin-left="0"
     fit-margin-right="0"
     fit-margin-bottom="0"
     inkscape:zoom="5.28"
     inkscape:cx="-23.206716"
     inkscape:cy="27.451502"
     inkscape:window-x="0"
     inkscape:window-y="0"
     inkscape:window-maximized="0"
     inkscape:current-layer="svg3342" />
  <defs
     id="defs3344" />
  <metadata
     id="metadata3347">
    <rdf:RDF>
      <cc:Work
         rdf:about="">
        <dc:format>image/svg+xml</dc:format>
        <dc:type
           rdf:resource="http://purl.org/dc/dcmitype/StillImage" />
        <dc:title></dc:title>
      </cc:Work>
    </rdf:RDF>
  </metadata>
  <g
     id="g4151"
     transform="scale(0.86011402,0.86011402)">
    <path
       inkscape:connector-curvature="0"
       style="fill:#008000;fill-rule:evenodd;stroke:#000000;stroke-width:0.13991939px;stroke-linecap:butt;stroke-linejoin:miter;stroke-opacity:1"
       d="m 0.06995969,0.06995969 0,54.78124931 37.06445031,0 0,-54.78124931 -37.06445031,0 z M 19.43519,20.44496 a 3.7204723,3.7204723 0 0 1 3.7207,3.71875 3.7204723,3.7204723 0 0 1 -3.7207,3.72071 3.7204723,3.7204723 0 0 1 -3.7207,-3.72071 3.7204723,3.7204723 0 0 1 3.7207,-3.71875 z M 5.0640997,50.900039 a 1.35,1.35 0 0 1 1.34961,1.34961 1.35,1.35 0 0 1 -1.34961,1.34961 1.35,1.35 0 0 1 -1.34961,-1.34961 1.35,1.35 0 0 1 1.34961,-1.34961 z m 9.0000003,0 a 1.35,1.35 0 0 1 1.34961,1.34961 1.35,1.35 0 0 1 -1.34961,1.34961 1.35,1.35 0 0 1 -1.349611,-1.34961 1.35,1.35 0 0 1 1.349611,-1.34961 z m 9,0 a 1.35,1.35 0 0 1 1.34961,1.34961 1.35,1.35 0 0 1 -1.34961,1.34961 1.35,1.35 0 0 1 -1.34961,-1.34961 1.35,1.35 0 0 1 1.34961,-1.34961 z m 9,0 a 1.35,1.35 0 0 1 1.34961,1.34961 1.35,1.35 0 0 1 -1.34961,1.34961 1.35,1.35 0 0 1 -1.34961,-1.34961 1.35,1.35 0 0 1 1.34961,-1.34961 z"
       id="rect3350-8" />
    <path
       inkscape:connector-curvature="0"
       style="fill:#cccccc"
       d="m 19.53954,16.8635 a 7.0866141,7.0866141 0 0 0 -7.08594,7.08789 7.0866141,7.0866141 0 0 0 7.08594,7.08594 7.0866141,7.0866141 0 0 0 7.08594,-7.08594 7.0866141,7.0866141 0 0 0 -7.08594,-7.08789 z m -0.0742,3.58398 a 3.7204723,3.7204723 0 0 1 3.72071,3.7207 3.7204723,3.7204723 0 0 1 -3.72071,3.72071 3.7204723,3.7204723 0 0 1 -3.7207,-3.72071 3.7204723,3.7204723 0 0 1 3.7207,-3.7207 z"
       id="path3448-8" />
    <rect
       style="fill:#000000"
       id="rect3352"
       width="10.629921"
       height="10.629921"
       x="13.85176"
       y="3.9012673" />
    <text
       sodipodi:linespacing="100%"
       xml:space="preserve"
       style="font-style:normal;font-variant:normal;font-weight:normal;font-stretch:normal;font-size:5px;line-height:100%;font-family:'Droid Sans';-inkscape-font-specification:'Droid Sans, Normal';text-align:start;letter-spacing:0px;word-spacing:0px;writing-mode:lr-tb;text-anchor:start;fill:#ffffff;fill-opacity:1;stroke:none;stroke-width:1px;stroke-linecap:butt;stroke-linejoin:miter;stroke-opacity:1"
       x="-48.26091"
       y="6.8134522"
       id="text3465"
       transform="matrix(0,-1,1,0,0,0)"><tspan
         id="tspan3467"
         x="-48.26091"
         y="6.8134522"
         style="font-style:normal;font-variant:normal;font-weight:normal;font-stretch:normal;font-size:5px;line-height:100%;font-family:'Droid Sans';-inkscape-font-specification:'Droid Sans, Normal';text-align:start;writing-mode:lr-tb;text-anchor:start;fill:#ffffff">VCC</tspan></text>
    <text
       sodipodi:linespacing="100%"
       xml:space="preserve"
       style="font-style:normal;font-variant:normal;font-weight:normal;font-stretch:normal;font-size:5px;line-height:100%;font-family:'Droid Sans';-inkscape-font-specification:'Droid Sans, Normal';text-align:start;letter-spacing:0px;word-spacing:0px;writing-mode:lr-tb;text-anchor:start;fill:#ffffff;fill-opacity:1;stroke:none;stroke-width:1px;stroke-linecap:butt;stroke-linejoin:miter;stroke-opacity:1"
       x="-48.299606"
       y="15.947653"
       id="text3465-0"
       transform="matrix(0,-1,1,0,0,0)"><tspan
         id="tspan3467-5"
         x="-48.299606"
         y="15.947653"
         style="font-style:normal;font-variant:normal;font-weight:normal;font-stretch:normal;font-size:5px;line-height:100%;font-family:'Droid Sans';-inkscape-font-specification:'Droid Sans, Normal';text-align:start;writing-mode:lr-tb;text-anchor:start;fill:#ffffff">SCL</tspan></text>
    <text
       sodipodi:linespacing="100%"
       xml:space="preserve"
       style="font-style:normal;font-variant:normal;font-weight:normal;font-stretch:normal;font-size:5px;line-height:100%;font-family:'Droid Sans';-inkscape-font-specification:'Droid Sans, Normal';text-align:start;letter-spacing:0px;word-spacing:0px;writing-mode:lr-tb;text-anchor:start;fill:#ffffff;fill-opacity:1;stroke:none;stroke-width:1px;stroke-linecap:butt;stroke-linejoin:miter;stroke-opacity:1"
       x="-48.440048"
       y="24.957428"
       id="text3465-0-3"
       transform="matrix(0,-1,1,0,0,0)"><tspan
         id="tspan3467-5-3"
         x="-48.440048"
         y="24.957428"
         style="font-style:normal;font-variant:normal;font-weight:normal;font-stretch:normal;font-size:5px;line-height:100%;font-family:'Droid Sans';-inkscape-font-specification:'Droid Sans, Normal';text-align:start;writing-mode:lr-tb;text-anchor:start;fill:#ffffff">SDA</tspan></text>
    <text
       sodipodi:linespacing="100%"
       xml:space="preserve"
       style="font-style:normal;font-variant:normal;font-weight:normal;font-stretch:normal;font-size:5px;line-height:100%;font-family:'Droid Sans';-inkscape-font-specification:'Droid Sans, Normal';text-align:start;letter-spacing:0px;word-spacing:0px;writing-mode:lr-tb;text-anchor:start;fill:#ffffff;fill-opacity:1;stroke:none;stroke-width:1px;stroke-linecap:butt;stroke-linejoin:miter;stroke-opacity:1"
       x="-48.578049"
       y="33.669258"
       id="text3465-0-3-0"
       transform="matrix(0,-1,1,0,0,0)"><tspan
         id="tspan3467-5-3-3"
         x="-48.578049"
         y="33.669258"
         style="font-style:normal;font-variant:normal;font-weight:normal;font-stretch:normal;font-size:5px;line-height:100%;font-family:'Droid Sans';-inkscape-font-specification:'Droid Sans, Normal';text-align:start;writing-mode:lr-tb;text-anchor:start;fill:#ffffff">GND</tspan></text>
    <circle
       cy="52.336639"
       cx="5.0689464"
       r="1.9542859"
       id="connector0pin"
       style="fill:none;stroke:#f7bd13;stroke-width:1.16571438;stroke-miterlimit:4;stroke-dasharray:none;stroke-opacity:1" />
    <circle
       style="fill:none;stroke:#f7bd13;stroke-width:1.16571438;stroke-miterlimit:4;stroke-dasharray:none;stroke-opacity:1"
       id="connector1pin"
       r="1.9542859"
       cx="14.068945"
       cy="52.336639" />
    <circle
       cy="52.336639"
       cx="23.068945"
       r="1.9542859"
       id="connector2pin"
       style="fill:none;stroke:#f7bd13;stroke-width:1.16571438;stroke-miterlimit:4;stroke-dasharray:none;stroke-opacity:1" />
    <circle
       style="fill:none;stroke:#f7bd13;stroke-width:1.16571438;stroke-miterlimit:4;stroke-dasharray:none;stroke-opacity:1"
       id="connector3pin"
       r="1.9542859"
       cx="32.068943"
       cy="52.336639" />
    <text
       sodipodi:linespacing="100%"
       id="text4147"
       y="10.413593"
       x="15.530303"
       style="font-style:normal;font-variant:normal;font-weight:normal;font-stretch:normal;font-size:3.75px;line-height:100%;font-family:'Droid Sans';-inkscape-font-specification:'Droid Sans, Normal';text-align:start;letter-spacing:0px;word-spacing:0px;writing-mode:lr-tb;text-anchor:start;fill:#ffffff;fill-opacity:1;stroke:none;stroke-width:1px;stroke-linecap:butt;stroke-linejoin:miter;stroke-opacity:1"
       xml:space="preserve"><tspan
         y="10.413593"
         x="15.530303"
         id="tspan4149"
         sodipodi:role="line">SHT</tspan></text>
  </g>
</svg>
