<?xml version="1.0" encoding="UTF-8" standalone="no"?>
<!-- Created with Inkscape (http://www.inkscape.org/) -->

<svg
   xmlns:dc="http://purl.org/dc/elements/1.1/"
   xmlns:cc="http://creativecommons.org/ns#"
   xmlns:rdf="http://www.w3.org/1999/02/22-rdf-syntax-ns#"
   xmlns:svg="http://www.w3.org/2000/svg"
   xmlns="http://www.w3.org/2000/svg"
   xmlns:sodipodi="http://sodipodi.sourceforge.net/DTD/sodipodi-0.dtd"
   xmlns:inkscape="http://www.inkscape.org/namespaces/inkscape"
   width="40.908707mm"
   height="28.262022mm"
   viewBox="0 0 144.95211 100.14102"
   id="svg2"
   version="1.1"
   inkscape:version="0.91 r13725"
   sodipodi:docname="共通回路図(Xbee).svg">
  <defs
     id="defs4" />
  <sodipodi:namedview
     id="base"
     pagecolor="#ffffff"
     bordercolor="#666666"
     borderopacity="1.0"
     inkscape:pageopacity="0.0"
     inkscape:pageshadow="2"
     inkscape:zoom="3.96"
     inkscape:cx="64.857272"
     inkscape:cy="55.16588"
     inkscape:document-units="px"
     inkscape:current-layer="layer1"
     showgrid="false"
     inkscape:window-width="1390"
     inkscape:window-height="1091"
     inkscape:window-x="1868"
     inkscape:window-y="22"
     inkscape:window-maximized="0"
     fit-margin-top="0"
     fit-margin-left="0"
     fit-margin-right="0"
     fit-margin-bottom="0" />
  <metadata
     id="metadata7">
    <rdf:RDF>
      <cc:Work
         rdf:about="">
        <dc:format>image/svg+xml</dc:format>
        <dc:type
           rdf:resource="http://purl.org/dc/dcmitype/StillImage" />
        <dc:title></dc:title>
      </cc:Work>
    </rdf:RDF>
  </metadata>
  <g
     inkscape:label="レイヤー 1"
     inkscape:groupmode="layer"
     id="layer1"
     transform="translate(-399.66678,-433.50596)">
    <rect
       id="rect4163"
       y="434.07648"
       x="418.14346"
       width="107.99875"
       height="99"
       style="fill:#ffffff" />
    <g
       id="g4165"
       transform="matrix(1.25,0,0,1.25,466.23658,477.90997)">
      <text
         font-size="4.25"
         id="label"
         style="font-size:4.25px;font-family:DroidSans">XBEE</text>
    </g>
    <rect
       id="rect4168"
       y="434.07648"
       x="418.14346"
       width="107.99875"
       height="99"
       style="fill:#ffffff" />
    <g
       id="g4170"
       transform="matrix(1.25,0,0,1.25,466.23658,477.90997)">
      <text
         font-size="4.25"
         id="label_1_"
         style="font-size:4.25px;font-family:DroidSans">XBEE</text>
    </g>
    <line
       id="line4176"
       x2="526.14221"
       x1="418.14346"
       y2="434.07648"
       y1="434.07648"
       style="fill:none;stroke:#000000;stroke-width:1.125;stroke-linecap:round" />
    <line
       id="line4178"
       x2="526.14221"
       x1="526.14221"
       y2="533.07648"
       y1="434.07648"
       style="fill:none;stroke:#000000;stroke-width:1.125;stroke-linecap:round" />
    <line
       id="line4180"
       x2="418.14346"
       x1="526.14221"
       y2="533.07648"
       y1="533.07648"
       style="fill:none;stroke:#000000;stroke-width:1.125;stroke-linecap:round" />
    <line
       id="line4182"
       x2="418.14346"
       x1="418.14346"
       y2="434.07648"
       y1="533.07648"
       style="fill:none;stroke:#000000;stroke-width:1.125;stroke-linecap:round" />
    <line
       id="connector0pin"
       x2="418.14346"
       x1="400.14221"
       y2="443.07648"
       y1="443.07648"
       style="fill:none;stroke:#787878;stroke-width:0.9375;stroke-linecap:round" />
    <g
       id="connector0terminal"
       y="7.56"
       x="0.324"
       width="0.001"
       height="0"
       style="fill:none"
       transform="matrix(1.25,0,0,1.25,399.73721,433.62647)" />
    <g
       id="g4186"
       transform="matrix(1.25,0,0,1.25,408.28246,441.76372)">
      <text
         id="text4188"
         font-size="2.5"
         style="font-size:2.5px;font-family:DroidSans;fill:#8c8c8c">1</text>
    </g>
    <g
       id="g4190"
       transform="matrix(1.25,0,0,1.25,420.76783,443.95122)">
      <text
         id="text4192"
         font-size="3.5"
         style="font-size:3.5px;font-family:DroidSans;fill:#787878">VDD</text>
    </g>
    <line
       id="connector1pin"
       x2="418.14346"
       x1="400.14221"
       y2="452.07648"
       y1="452.07648"
       style="fill:none;stroke:#787878;stroke-width:0.9375;stroke-linecap:round" />
    <g
       id="connector1terminal"
       y="14.76"
       x="0.324"
       width="0.001"
       height="0"
       style="fill:none"
       transform="matrix(1.25,0,0,1.25,399.73721,433.62647)" />
    <g
       id="g4196"
       transform="matrix(1.25,0,0,1.25,408.28246,450.76397)">
      <text
         id="text4198"
         font-size="2.5"
         style="font-size:2.5px;font-family:DroidSans;fill:#8c8c8c">2</text>
    </g>
    <g
       id="g4200"
       transform="matrix(1.25,0,0,1.25,420.76783,452.95147)">
      <text
         id="text4202"
         font-size="3.5"
         style="font-size:3.5px;font-family:DroidSans;fill:#787878">DOUT</text>
    </g>
    <line
       id="connector2pin"
       x2="418.14346"
       x1="400.14221"
       y2="461.07648"
       y1="461.07648"
       style="fill:none;stroke:#787878;stroke-width:0.9375;stroke-linecap:round" />
    <g
       id="connector2terminal"
       y="21.96"
       x="0.324"
       width="0.001"
       height="0"
       style="fill:none"
       transform="matrix(1.25,0,0,1.25,399.73721,433.62647)" />
    <g
       id="g4206"
       transform="matrix(1.25,0,0,1.25,408.28246,459.76422)">
      <text
         id="text4208"
         font-size="2.5"
         style="font-size:2.5px;font-family:DroidSans;fill:#8c8c8c">3</text>
    </g>
    <g
       id="g4210"
       transform="matrix(1.25,0,0,1.25,420.76783,461.95172)">
      <text
         id="text4212"
         font-size="3.5"
         style="font-size:3.5px;font-family:DroidSans;fill:#787878">DIN</text>
    </g>
    <line
       id="connector3pin"
       x2="418.14346"
       x1="400.14221"
       y2="470.07648"
       y1="470.07648"
       style="fill:none;stroke:#787878;stroke-width:0.9375;stroke-linecap:round" />
    <g
       id="connector3terminal"
       y="29.16"
       x="0.324"
       width="0.001"
       height="0"
       style="fill:none"
       transform="matrix(1.25,0,0,1.25,399.73721,433.62647)" />
    <g
       id="g4216"
       transform="matrix(1.25,0,0,1.25,408.28246,468.76322)">
      <text
         id="text4218"
         font-size="2.5"
         style="font-size:2.5px;font-family:DroidSans;fill:#8c8c8c">4</text>
    </g>
    <g
       id="g4220"
       transform="matrix(1.25,0,0,1.25,420.76783,470.95072)">
      <text
         id="text4222"
         font-size="3.5"
         style="font-size:3.5px;font-family:DroidSans;fill:#787878">DIO12</text>
    </g>
    <line
       id="connector4pin"
       x2="418.14346"
       x1="400.14221"
       y2="479.07648"
       y1="479.07648"
       style="fill:none;stroke:#787878;stroke-width:0.9375;stroke-linecap:round" />
    <g
       id="connector4terminal"
       y="36.36"
       x="0.324"
       width="0.001"
       height="0"
       style="fill:none"
       transform="matrix(1.25,0,0,1.25,399.73721,433.62647)" />
    <g
       id="g4226"
       transform="matrix(1.25,0,0,1.25,408.28246,477.76459)">
      <text
         id="text4228"
         font-size="2.5"
         style="font-size:2.5px;font-family:DroidSans;fill:#8c8c8c">5</text>
    </g>
    <g
       id="g4230"
       transform="matrix(1.25,0,0,1.25,420.76783,479.94972)">
      <text
         id="text4232"
         font-size="3.5"
         style="font-size:3.5px;font-family:DroidSans;fill:#787878">RESET</text>
    </g>
    <line
       id="connector5pin"
       x2="418.14346"
       x1="400.14221"
       y2="488.07648"
       y1="488.07648"
       style="fill:none;stroke:#787878;stroke-width:0.9375;stroke-linecap:round" />
    <g
       id="connector5terminal"
       y="43.56"
       x="0.324"
       width="0.001"
       height="0"
       style="fill:none"
       transform="matrix(1.25,0,0,1.25,399.73721,433.62647)" />
    <g
       id="g4236"
       transform="matrix(1.25,0,0,1.25,408.28246,486.76484)">
      <text
         id="text4238"
         font-size="2.5"
         style="font-size:2.5px;font-family:DroidSans;fill:#8c8c8c">6</text>
    </g>
    <g
       id="g4240"
       transform="matrix(1.25,0,0,1.25,420.76783,488.95122)">
      <text
         id="text4242"
         font-size="3.5"
         style="font-size:3.5px;font-family:DroidSans;fill:#787878">RSSI</text>
    </g>
    <line
       id="connector6pin"
       x2="418.14346"
       x1="400.14221"
       y2="497.07773"
       y1="497.07773"
       style="fill:none;stroke:#787878;stroke-width:0.9375;stroke-linecap:round" />
    <g
       id="connector6terminal"
       y="50.761"
       x="0.324"
       width="0.001"
       height="0"
       style="fill:none"
       transform="matrix(1.25,0,0,1.25,399.73721,433.62647)" />
    <g
       id="g4246"
       transform="matrix(1.25,0,0,1.25,408.28246,495.76272)">
      <text
         id="text4248"
         font-size="2.5"
         style="font-size:2.5px;font-family:DroidSans;fill:#8c8c8c">7</text>
    </g>
    <g
       id="g4250"
       transform="matrix(1.25,0,0,1.25,420.76783,497.95147)">
      <text
         id="text4252"
         font-size="3.5"
         style="font-size:3.5px;font-family:DroidSans;fill:#787878">DIO11</text>
    </g>
    <line
       id="connector7pin"
       x2="418.14346"
       x1="400.14221"
       y2="506.07648"
       y1="506.07648"
       style="fill:none;stroke:#787878;stroke-width:0.9375;stroke-linecap:round" />
    <g
       id="connector7terminal"
       y="57.96"
       x="0.324"
       width="0.001"
       height="0"
       style="fill:none"
       transform="matrix(1.25,0,0,1.25,399.73721,433.62647)" />
    <g
       id="g4256"
       transform="matrix(1.25,0,0,1.25,408.28246,504.76534)">
      <text
         id="text4258"
         font-size="2.5"
         style="font-size:2.5px;font-family:DroidSans;fill:#8c8c8c">8</text>
    </g>
    <g
       id="g4260"
       transform="matrix(1.25,0,0,1.25,420.76783,506.95172)">
      <text
         id="text4262"
         font-size="3.5"
         style="font-size:3.5px;font-family:DroidSans;fill:#787878">RES</text>
    </g>
    <line
       id="connector8pin"
       x2="418.14346"
       x1="400.14221"
       y2="515.07648"
       y1="515.07648"
       style="fill:none;stroke:#787878;stroke-width:0.9375;stroke-linecap:round" />
    <g
       id="connector8terminal"
       y="65.16"
       x="0.324"
       width="0.001"
       height="0"
       style="fill:none"
       transform="matrix(1.25,0,0,1.25,399.73721,433.62647)" />
    <g
       id="g4266"
       transform="matrix(1.25,0,0,1.25,408.28246,513.76322)">
      <text
         id="text4268"
         font-size="2.5"
         style="font-size:2.5px;font-family:DroidSans;fill:#8c8c8c">9</text>
    </g>
    <g
       id="g4270"
       transform="matrix(1.25,0,0,1.25,420.76783,515.95072)">
      <text
         id="text4272"
         font-size="3.5"
         style="font-size:3.5px;font-family:DroidSans;fill:#787878">DTR</text>
    </g>
    <line
       id="connector9pin"
       x2="418.14346"
       x1="400.14221"
       y2="524.07648"
       y1="524.07648"
       style="fill:none;stroke:#787878;stroke-width:0.9375;stroke-linecap:round" />
    <g
       id="connector9terminal"
       y="72.36"
       x="0.324"
       width="0.001"
       height="0"
       style="fill:none"
       transform="matrix(1.25,0,0,1.25,399.73721,433.62647)" />
    <g
       id="g4276"
       transform="matrix(1.25,0,0,1.25,407.42059,522.76222)">
      <text
         id="text4278"
         font-size="2.5"
         style="font-size:2.5px;font-family:DroidSans;fill:#8c8c8c">10</text>
    </g>
    <g
       id="g4280"
       transform="matrix(1.25,0,0,1.25,420.76783,524.94972)">
      <text
         id="text4282"
         font-size="3.5"
         style="font-size:3.5px;font-family:DroidSans;fill:#787878">GND</text>
    </g>
    <line
       id="connector10pin"
       x2="526.14221"
       x1="544.14343"
       y2="524.07648"
       y1="524.07648"
       style="fill:none;stroke:#787878;stroke-width:0.9375;stroke-linecap:round" />
    <g
       id="connector10terminal"
       y="72.36"
       x="115.525"
       width="0"
       height="0"
       style="fill:none"
       transform="matrix(1.25,0,0,1.25,399.73721,433.62647)" />
    <g
       id="g4286"
       transform="matrix(1.25,0,0,1.25,533.42221,522.76222)">
      <text
         id="text4288"
         font-size="2.5"
         style="font-size:2.5px;font-family:DroidSans;fill:#8c8c8c">11</text>
    </g>
    <g
       id="g4290"
       transform="matrix(1.25,0,0,1.25,513.47046,524.94972)">
      <text
         id="text4292"
         font-size="3.5"
         style="font-size:3.5px;font-family:DroidSans;fill:#787878">DIO4</text>
    </g>
    <line
       id="connector11pin"
       x2="526.14221"
       x1="544.14343"
       y2="515.07648"
       y1="515.07648"
       style="fill:none;stroke:#787878;stroke-width:0.9375;stroke-linecap:round" />
    <g
       id="connector11terminal"
       y="65.16"
       x="115.525"
       width="0"
       height="0"
       style="fill:none"
       transform="matrix(1.25,0,0,1.25,399.73721,433.62647)" />
    <g
       id="g4296"
       transform="matrix(1.25,0,0,1.25,533.42221,513.76322)">
      <text
         id="text4298"
         font-size="2.5"
         style="font-size:2.5px;font-family:DroidSans;fill:#8c8c8c">12</text>
    </g>
    <g
       id="g4300"
       transform="matrix(1.25,0,0,1.25,516.38058,515.95072)">
      <text
         id="text4302"
         font-size="3.5"
         style="font-size:3.5px;font-family:DroidSans;fill:#787878">CTS</text>
    </g>
    <line
       id="connector12pin"
       x2="526.14221"
       x1="544.14343"
       y2="506.07648"
       y1="506.07648"
       style="fill:none;stroke:#787878;stroke-width:0.9375;stroke-linecap:round" />
    <g
       id="connector12terminal"
       y="57.96"
       x="115.525"
       width="0"
       height="0"
       style="fill:none"
       transform="matrix(1.25,0,0,1.25,399.73721,433.62647)" />
    <g
       id="g4306"
       transform="matrix(1.25,0,0,1.25,533.42221,504.76534)">
      <text
         id="text4308"
         font-size="2.5"
         style="font-size:2.5px;font-family:DroidSans;fill:#8c8c8c">13</text>
    </g>
    <g
       id="g4310"
       transform="matrix(1.25,0,0,1.25,513.47046,506.95172)">
      <text
         id="text4312"
         font-size="3.5"
         style="font-size:3.5px;font-family:DroidSans;fill:#787878">DIO9</text>
    </g>
    <line
       id="connector13pin"
       x2="400.11221"
       x1="418.11096"
       y2="506.07648"
       y1="506.07648"
       style="fill:none" />
    <g
       id="connector13terminal"
       y="57.96"
       x="0.324"
       width="0.001"
       height="0"
       style="fill:none"
       transform="matrix(1.25,0,0,1.25,399.73721,433.62647)" />
    <line
       id="connector14pin"
       x2="526.14221"
       x1="544.14343"
       y2="488.07648"
       y1="488.07648"
       style="fill:none;stroke:#787878;stroke-width:0.9375;stroke-linecap:round" />
    <g
       id="connector14terminal"
       y="43.56"
       x="115.525"
       width="0"
       height="0"
       style="fill:none"
       transform="matrix(1.25,0,0,1.25,399.73721,433.62647)" />
    <g
       id="g4318"
       transform="matrix(1.25,0,0,1.25,533.42221,486.76484)">
      <text
         id="text4320"
         font-size="2.5"
         style="font-size:2.5px;font-family:DroidSans;fill:#8c8c8c">15</text>
    </g>
    <g
       id="g4322"
       transform="matrix(1.25,0,0,1.25,513.47046,488.95122)">
      <text
         id="text4324"
         font-size="3.5"
         style="font-size:3.5px;font-family:DroidSans;fill:#787878">DIO5</text>
    </g>
    <line
       id="connector15pin"
       x2="526.14221"
       x1="544.14343"
       y2="479.07648"
       y1="479.07648"
       style="fill:none;stroke:#787878;stroke-width:0.9375;stroke-linecap:round" />
    <g
       id="connector15terminal"
       y="36.36"
       x="115.525"
       width="0"
       height="0"
       style="fill:none"
       transform="matrix(1.25,0,0,1.25,399.73721,433.62647)" />
    <g
       id="g4328"
       transform="matrix(1.25,0,0,1.25,533.42221,477.76459)">
      <text
         id="text4330"
         font-size="2.5"
         style="font-size:2.5px;font-family:DroidSans;fill:#8c8c8c">16</text>
    </g>
    <g
       id="g4332"
       transform="matrix(1.25,0,0,1.25,516.48071,479.94972)">
      <text
         id="text4334"
         font-size="3.5"
         style="font-size:3.5px;font-family:DroidSans;fill:#787878">RTS</text>
    </g>
    <line
       id="connector16pin"
       x2="526.14221"
       x1="544.14343"
       y2="470.07648"
       y1="470.07648"
       style="fill:none;stroke:#787878;stroke-width:0.9375;stroke-linecap:round" />
    <g
       id="connector16terminal"
       y="29.16"
       x="115.525"
       width="0"
       height="0"
       style="fill:none"
       transform="matrix(1.25,0,0,1.25,399.73721,433.62647)" />
    <g
       id="g4338"
       transform="matrix(1.25,0,0,1.25,533.42221,468.76322)">
      <text
         id="text4340"
         font-size="2.5"
         style="font-size:2.5px;font-family:DroidSans;fill:#8c8c8c">17</text>
    </g>
    <g
       id="g4342"
       transform="matrix(1.25,0,0,1.25,513.47046,470.95072)">
      <text
         id="text4344"
         font-size="3.5"
         style="font-size:3.5px;font-family:DroidSans;fill:#787878">DIO3</text>
    </g>
    <line
       id="connector17pin"
       x2="526.14221"
       x1="544.14343"
       y2="461.07648"
       y1="461.07648"
       style="fill:none;stroke:#787878;stroke-width:0.9375;stroke-linecap:round" />
    <g
       id="connector17terminal"
       y="21.96"
       x="115.525"
       width="0"
       height="0"
       style="fill:none"
       transform="matrix(1.25,0,0,1.25,399.73721,433.62647)" />
    <g
       id="g4348"
       transform="matrix(1.25,0,0,1.25,533.42221,459.76422)">
      <text
         id="text4350"
         font-size="2.5"
         style="font-size:2.5px;font-family:DroidSans;fill:#8c8c8c">18</text>
    </g>
    <g
       id="g4352"
       transform="matrix(1.25,0,0,1.25,513.47046,461.95172)">
      <text
         id="text4354"
         font-size="3.5"
         style="font-size:3.5px;font-family:DroidSans;fill:#787878">DIO2</text>
    </g>
    <line
       id="connector18pin"
       x2="526.14221"
       x1="544.14343"
       y2="452.07648"
       y1="452.07648"
       style="fill:none;stroke:#787878;stroke-width:0.9375;stroke-linecap:round" />
    <g
       id="connector18terminal"
       y="14.76"
       x="115.525"
       width="0"
       height="0"
       style="fill:none"
       transform="matrix(1.25,0,0,1.25,399.73721,433.62647)" />
    <g
       id="g4358"
       transform="matrix(1.25,0,0,1.25,533.42221,450.76397)">
      <text
         id="text4360"
         font-size="2.5"
         style="font-size:2.5px;font-family:DroidSans;fill:#8c8c8c">19</text>
    </g>
    <g
       id="g4362"
       transform="matrix(1.25,0,0,1.25,513.47046,452.95147)">
      <text
         id="text4364"
         font-size="3.5"
         style="font-size:3.5px;font-family:DroidSans;fill:#787878">DIO1</text>
    </g>
    <line
       id="connector19pin"
       x2="526.14221"
       x1="544.14343"
       y2="443.07648"
       y1="443.07648"
       style="fill:none;stroke:#787878;stroke-width:0.9375;stroke-linecap:round" />
    <g
       id="connector19terminal"
       y="7.56"
       x="115.525"
       width="0"
       height="0"
       style="fill:none"
       transform="matrix(1.25,0,0,1.25,399.73721,433.62647)" />
    <g
       id="g4368"
       transform="matrix(1.25,0,0,1.25,533.42221,441.76372)">
      <text
         id="text4370"
         font-size="2.5"
         style="font-size:2.5px;font-family:DroidSans;fill:#8c8c8c">20</text>
    </g>
    <g
       id="g4372"
       transform="matrix(1.25,0,0,1.25,513.47046,443.95122)">
      <text
         id="text4374"
         font-size="3.5"
         style="font-size:3.5px;font-family:DroidSans;fill:#787878">DIO0</text>
    </g>
    <line
       style="fill:none;stroke:#787878;stroke-width:0.9375;stroke-linecap:round"
       y1="497.0882"
       y2="497.0882"
       x1="544.14343"
       x2="526.14221"
       id="line4259" />
    <text
       id="text4263"
       font-size="2.5"
       style="font-size:3.125px;font-family:DroidSans;fill:#8c8c8c;-inkscape-font-specification:'DroidSans, Normal';font-weight:normal;font-style:normal;font-stretch:normal;font-variant:normal;text-anchor:start;text-align:start;writing-mode:lr;line-height:125%;"
       x="533.42218"
       y="495.52292"
       sodipodi:linespacing="125%">
      <tspan
         sodipodi:role="line"
         id="tspan4266">14</tspan>
    </text>
    <text
       id="text4270"
       font-size="3.5"
       style="font-size:4.375px;font-family:DroidSans;fill:#787878;-inkscape-font-specification:'DroidSans, Normal';font-weight:normal;font-style:normal;font-stretch:normal;font-variant:normal;text-anchor:start;text-align:start;writing-mode:lr;line-height:125%;"
       x="513.72296"
       y="498.36588"
       sodipodi:linespacing="125%">
      <tspan
         sodipodi:role="line"
         id="tspan4273">VREF</tspan>
    </text>
  </g>
</svg>
